<svg width="154" height="47" viewBox="0 0 154 47" fill="none" xmlns="http://www.w3.org/2000/svg">
<g clip-path="url(#clip0_1503_21197)">
<path d="M148.002 46.023H5.58183C2.62258 46.023 0.213867 43.6075 0.213867 40.6505V5.98296C0.213867 3.02485 2.62258 0.618408 5.58183 0.618408H148.002C150.961 0.618408 153.454 3.02485 153.454 5.98296V40.6505C153.454 43.6075 150.961 46.023 148.002 46.023Z" fill="#A6A6A6"/>
<path d="M152.356 40.6516C152.356 43.0536 150.41 44.9991 148.004 44.9991H5.58183C3.17652 44.9991 1.22412 43.0536 1.22412 40.6516V5.98183C1.22412 3.58106 3.17652 1.62866 5.58183 1.62866H148.002C150.41 1.62866 152.354 3.58106 152.354 5.98183L152.356 40.6516Z" fill="black"/>
<path d="M34.4128 23.0756C34.3799 19.4171 37.4084 17.6373 37.5469 17.5544C35.8317 15.0538 33.1733 14.7121 32.2391 14.6848C30.0063 14.4499 27.8405 16.0209 26.7031 16.0209C25.5431 16.0209 23.7916 14.7075 21.9039 14.7461C19.4747 14.7836 17.2022 16.19 15.9559 18.374C13.3837 22.827 15.302 29.371 17.7664 32.9704C18.9991 34.7332 20.4396 36.7015 22.325 36.6323C24.1696 36.5562 24.8586 35.4563 27.0845 35.4563C29.2901 35.4563 29.9371 36.6323 31.86 36.588C33.8396 36.5562 35.086 34.8172 36.2756 33.0385C37.7001 31.018 38.2722 29.0282 38.2949 28.926C38.2484 28.9101 34.4503 27.4606 34.4128 23.0756Z" fill="white"/>
<path d="M30.7803 12.317C31.7724 11.0763 32.4512 9.38843 32.2628 7.67554C30.8269 7.7391 29.0311 8.66876 27.997 9.8822C27.0821 10.9515 26.2648 12.7041 26.476 14.3523C28.089 14.4726 29.7451 13.5384 30.7803 12.317Z" fill="white"/>
<path d="M61.107 36.3791H58.5292L57.1171 31.9419H52.2089L50.8637 36.3791H48.354L53.2168 21.2729H56.2204L61.107 36.3791ZM56.6914 30.0803L55.4144 26.1358C55.2793 25.7328 55.0262 24.7839 54.6528 23.29H54.6074C54.4587 23.9325 54.2191 24.8815 53.89 26.1358L52.6357 30.0803H56.6914Z" fill="white"/>
<path d="M73.6126 30.7986C73.6126 32.6512 73.1121 34.1155 72.1109 35.1904C71.2141 36.1473 70.1006 36.6252 68.7714 36.6252C67.3366 36.6252 66.3059 36.1099 65.6782 35.0792H65.6328V40.8172H63.2127V29.0721C63.2127 27.9075 63.1821 26.7122 63.123 25.4863H65.2514L65.3865 27.2128H65.4319C66.2389 25.912 67.4637 25.2627 69.1074 25.2627C70.3923 25.2627 71.465 25.7701 72.3232 26.786C73.1836 27.8031 73.6126 29.1402 73.6126 30.7986ZM71.1472 30.8872C71.1472 29.827 70.9088 28.953 70.4298 28.2651C69.9065 27.5477 69.2039 27.189 68.323 27.189C67.7259 27.189 67.1834 27.3888 66.6987 27.7826C66.2128 28.1799 65.895 28.6987 65.7463 29.3412C65.6714 29.6408 65.6339 29.886 65.6339 30.079V31.8952C65.6339 32.6875 65.8768 33.3561 66.3627 33.9021C66.8485 34.448 67.4796 34.7205 68.256 34.7205C69.1675 34.7205 69.877 34.3686 70.3844 33.6671C70.8929 32.9644 71.1472 32.0382 71.1472 30.8872Z" fill="white"/>
<path d="M86.1408 30.7986C86.1408 32.6512 85.6402 34.1155 84.6379 35.1904C83.7423 36.1473 82.6288 36.6252 81.2995 36.6252C79.8648 36.6252 78.8341 36.1099 78.2075 35.0792H78.1621V40.8172H75.742V29.0721C75.742 27.9075 75.7114 26.7122 75.6523 25.4863H77.7807L77.9158 27.2128H77.9612C78.7671 25.912 79.9919 25.2627 81.6367 25.2627C82.9205 25.2627 83.9932 25.7701 84.8536 26.786C85.7106 27.8031 86.1408 29.1402 86.1408 30.7986ZM83.6753 30.8872C83.6753 29.827 83.4358 28.953 82.9568 28.2651C82.4335 27.5477 81.7332 27.189 80.8512 27.189C80.253 27.189 79.7115 27.3888 79.2257 27.7826C78.7399 28.1799 78.4232 28.6987 78.2745 29.3412C78.2007 29.6408 78.1621 29.886 78.1621 30.079V31.8952C78.1621 32.6875 78.405 33.3561 78.8886 33.9021C79.3744 34.4469 80.0055 34.7205 80.7842 34.7205C81.6957 34.7205 82.4051 34.3686 82.9125 33.6671C83.4211 32.9644 83.6753 32.0382 83.6753 30.8872Z" fill="white"/>
<path d="M100.148 32.1427C100.148 33.4277 99.7023 34.4731 98.8067 35.2802C97.8225 36.1622 96.4524 36.6026 94.6919 36.6026C93.0664 36.6026 91.7633 36.2893 90.7769 35.6616L91.3376 33.6445C92.4001 34.287 93.5658 34.6093 94.836 34.6093C95.7475 34.6093 96.457 34.4027 96.9666 33.9918C97.474 33.5809 97.7272 33.0292 97.7272 32.3414C97.7272 31.7284 97.5183 31.2119 97.0994 30.7931C96.6829 30.3742 95.987 29.9849 95.0154 29.625C92.3706 28.6386 91.0493 27.1936 91.0493 25.2934C91.0493 24.0516 91.5124 23.0334 92.4398 22.2411C93.3638 21.4477 94.5965 21.0515 96.138 21.0515C97.5126 21.0515 98.6546 21.291 99.5661 21.7689L98.961 23.7417C98.1097 23.2786 97.1471 23.047 96.0699 23.047C95.2186 23.047 94.5534 23.257 94.0766 23.6748C93.6737 24.0482 93.4716 24.5034 93.4716 25.0426C93.4716 25.6396 93.702 26.1334 94.1652 26.5216C94.5681 26.8803 95.3003 27.2685 96.3628 27.6874C97.6625 28.2107 98.6171 28.8225 99.2312 29.524C99.843 30.2232 100.148 31.0984 100.148 32.1427Z" fill="white"/>
<path d="M108.15 27.3027H105.482V32.5912C105.482 33.9363 105.952 34.6083 106.894 34.6083C107.327 34.6083 107.685 34.5708 107.969 34.4959L108.036 36.3337C107.559 36.5119 106.932 36.6016 106.154 36.6016C105.198 36.6016 104.452 36.3098 103.912 35.7275C103.375 35.1441 103.105 34.1656 103.105 32.791V27.3004H101.516V25.4843H103.105V23.4899L105.482 22.7725V25.4843H108.15V27.3027Z" fill="white"/>
<path d="M120.185 30.843C120.185 32.5173 119.706 33.8919 118.75 34.9669C117.748 36.0736 116.418 36.6253 114.759 36.6253C113.161 36.6253 111.889 36.0952 110.94 35.035C109.991 33.9748 109.516 32.6365 109.516 31.0235C109.516 29.3356 110.004 27.953 110.984 26.8781C111.961 25.802 113.28 25.2639 114.939 25.2639C116.537 25.2639 117.823 25.794 118.793 26.8553C119.722 27.8849 120.185 29.2141 120.185 30.843ZM117.674 30.9213C117.674 29.9168 117.46 29.0552 117.025 28.3367C116.518 27.4672 115.792 27.0336 114.852 27.0336C113.879 27.0336 113.141 27.4683 112.633 28.3367C112.198 29.0563 111.984 29.9315 111.984 30.9667C111.984 31.9713 112.198 32.8329 112.633 33.5503C113.156 34.4198 113.887 34.8534 114.831 34.8534C115.755 34.8534 116.48 34.4107 117.003 33.5276C117.449 32.7954 117.674 31.9248 117.674 30.9213Z" fill="white"/>
<path d="M128.052 27.6147C127.812 27.5704 127.557 27.5477 127.289 27.5477C126.438 27.5477 125.779 27.8689 125.316 28.5125C124.913 29.0801 124.711 29.7975 124.711 30.6636V36.3789H122.292L122.315 28.9166C122.315 27.6612 122.284 26.5181 122.224 25.4874H124.332L124.421 27.5715H124.488C124.743 26.8553 125.146 26.2786 125.698 25.8461C126.237 25.4568 126.819 25.2627 127.447 25.2627C127.67 25.2627 127.872 25.2786 128.052 25.307V27.6147Z" fill="white"/>
<path d="M138.875 30.4174C138.875 30.851 138.847 31.2165 138.787 31.5151H131.526C131.555 32.5912 131.905 33.4141 132.58 33.9817C133.192 34.4891 133.983 34.7433 134.954 34.7433C136.029 34.7433 137.01 34.5719 137.892 34.228L138.271 35.908C137.241 36.3575 136.024 36.5811 134.62 36.5811C132.93 36.5811 131.605 36.0839 130.64 35.0907C129.677 34.0975 129.195 32.7637 129.195 31.0905C129.195 29.448 129.643 28.0802 130.541 26.9894C131.481 25.8247 132.751 25.2424 134.349 25.2424C135.919 25.2424 137.108 25.8247 137.915 26.9894C138.554 27.9145 138.875 29.0587 138.875 30.4174ZM136.567 29.7897C136.583 29.0723 136.426 28.4525 136.097 27.9292C135.679 27.2561 135.035 26.9201 134.169 26.9201C133.378 26.9201 132.734 27.2482 132.243 27.9065C131.84 28.4298 131.6 29.0576 131.526 29.7886H136.567V29.7897Z" fill="white"/>
<path d="M55.8911 11.9798C55.8911 13.3158 55.4904 14.3215 54.6902 14.9969C53.9489 15.6201 52.8956 15.9322 51.5311 15.9322C50.8546 15.9322 50.2757 15.9027 49.791 15.8437V8.54378C50.4233 8.44162 51.1043 8.3894 51.8399 8.3894C53.1396 8.3894 54.1192 8.67205 54.7798 9.23733C55.5199 9.8764 55.8911 10.7902 55.8911 11.9798ZM54.6368 12.0127C54.6368 11.1466 54.4075 10.4826 53.9489 10.0194C53.4904 9.55744 52.8206 9.32587 51.9387 9.32587C51.5641 9.32587 51.2451 9.35085 50.9806 9.40306V14.9526C51.127 14.9753 51.3949 14.9856 51.7843 14.9856C52.6946 14.9856 53.3973 14.7324 53.8922 14.2262C54.3871 13.7199 54.6368 12.9821 54.6368 12.0127Z" fill="white"/>
<path d="M62.5416 13.1467C62.5416 13.9696 62.3066 14.6439 61.8367 15.1728C61.3441 15.7166 60.6914 15.9879 59.8764 15.9879C59.0909 15.9879 58.4654 15.7279 57.9989 15.2058C57.5335 14.6847 57.3008 14.0275 57.3008 13.2352C57.3008 12.4066 57.5403 11.7266 58.0216 11.1988C58.5029 10.671 59.1499 10.4065 59.9649 10.4065C60.7504 10.4065 61.3815 10.6664 61.8594 11.1875C62.3134 11.6937 62.5416 12.3475 62.5416 13.1467ZM61.3077 13.1853C61.3077 12.6915 61.201 12.2681 60.9888 11.9151C60.739 11.4883 60.3838 11.2749 59.9218 11.2749C59.4439 11.2749 59.0806 11.4883 58.8309 11.9151C58.6175 12.2681 58.512 12.6983 58.512 13.2068C58.512 13.7006 58.6186 14.124 58.8309 14.477C59.0886 14.9038 59.4473 15.1172 59.9104 15.1172C60.3645 15.1172 60.7209 14.9004 60.9774 14.4657C61.1976 14.1058 61.3077 13.679 61.3077 13.1853Z" fill="white"/>
<path d="M71.4594 10.5156L69.7851 15.8666H68.6954L68.0018 13.543C67.8259 12.9629 67.6828 12.3863 67.5716 11.8142H67.55C67.4467 12.4022 67.3037 12.9777 67.1198 13.543L66.3831 15.8666H65.2809L63.7065 10.5156H64.9291L65.5341 13.0594C65.6805 13.661 65.8008 14.2343 65.8973 14.7768H65.9189C66.0074 14.3296 66.1538 13.7598 66.3604 13.0708L67.1198 10.5168H68.0892L68.8168 13.0163C68.9928 13.6258 69.1358 14.2127 69.2459 14.778H69.2788C69.3594 14.2275 69.4809 13.6406 69.6421 13.0163L70.2913 10.5168H71.4594V10.5156Z" fill="white"/>
<path d="M77.6263 15.8666H76.4367V12.8018C76.4367 11.8574 76.078 11.3852 75.3584 11.3852C75.0053 11.3852 74.7204 11.5146 74.4991 11.7745C74.28 12.0345 74.1688 12.341 74.1688 12.6917V15.8655H72.9792V12.0447C72.9792 11.5748 72.9644 11.0651 72.936 10.5134H73.9815L74.0371 11.35H74.07C74.2085 11.0901 74.4151 10.8755 74.6864 10.7041C75.0088 10.5043 75.3697 10.4033 75.7647 10.4033C76.2642 10.4033 76.6796 10.5645 77.01 10.888C77.4209 11.2842 77.6263 11.8756 77.6263 12.6611V15.8666Z" fill="white"/>
<path d="M80.9067 15.8665H79.7183V8.0603H80.9067V15.8665Z" fill="white"/>
<path d="M87.9103 13.1467C87.9103 13.9696 87.6753 14.6439 87.2054 15.1728C86.7127 15.7166 86.0589 15.9879 85.245 15.9879C84.4584 15.9879 83.8329 15.7279 83.3675 15.2058C82.9021 14.6847 82.6694 14.0275 82.6694 13.2352C82.6694 12.4066 82.9089 11.7266 83.3902 11.1988C83.8715 10.671 84.5185 10.4065 85.3324 10.4065C86.119 10.4065 86.749 10.6664 87.2281 11.1875C87.6821 11.6937 87.9103 12.3475 87.9103 13.1467ZM86.6753 13.1853C86.6753 12.6915 86.5686 12.2681 86.3563 11.9151C86.1077 11.4883 85.7513 11.2749 85.2904 11.2749C84.8114 11.2749 84.4482 11.4883 84.1996 11.9151C83.9862 12.2681 83.8806 12.6983 83.8806 13.2068C83.8806 13.7006 83.9873 14.124 84.1996 14.477C84.4572 14.9038 84.8159 15.1172 85.2791 15.1172C85.7331 15.1172 86.0884 14.9004 86.3449 14.4657C86.5663 14.1058 86.6753 13.679 86.6753 13.1853Z" fill="white"/>
<path d="M93.6678 15.8664H92.5997L92.5111 15.25H92.4782C92.1127 15.7415 91.5917 15.9879 90.9151 15.9879C90.41 15.9879 90.0014 15.8255 89.6938 15.5032C89.4145 15.2103 89.2749 14.8459 89.2749 14.4134C89.2749 13.7596 89.5473 13.2613 90.0956 12.9162C90.6427 12.5712 91.4123 12.402 92.4033 12.41V12.3101C92.4033 11.6052 92.0332 11.2533 91.292 11.2533C90.7642 11.2533 90.2988 11.3861 89.897 11.6494L89.6552 10.8685C90.1523 10.5609 90.7664 10.4065 91.4907 10.4065C92.8891 10.4065 93.5906 11.1443 93.5906 12.62V14.5905C93.5906 15.1252 93.6167 15.5508 93.6678 15.8664ZM92.4328 14.0275V13.2023C91.1206 13.1796 90.4645 13.5394 90.4645 14.2806C90.4645 14.5599 90.5394 14.7687 90.6927 14.9084C90.8459 15.048 91.0411 15.1172 91.2738 15.1172C91.5349 15.1172 91.779 15.0344 92.0014 14.8698C92.2251 14.704 92.3624 14.494 92.4135 14.2364C92.426 14.1785 92.4328 14.1081 92.4328 14.0275Z" fill="white"/>
<path d="M100.427 15.8665H99.3717L99.3161 15.0072H99.2832C98.946 15.661 98.3717 15.9879 97.5646 15.9879C96.9198 15.9879 96.3829 15.7348 95.9573 15.2286C95.5316 14.7223 95.3193 14.0651 95.3193 13.258C95.3193 12.3919 95.5498 11.6904 96.0129 11.1546C96.4613 10.6552 97.0107 10.4054 97.6645 10.4054C98.383 10.4054 98.8859 10.6472 99.1719 11.1319H99.1946V8.0603H100.385V14.4249C100.385 14.9459 100.399 15.4261 100.427 15.8665ZM99.1946 13.6099V12.7177C99.1946 12.5633 99.1833 12.4384 99.1617 12.3431C99.0947 12.057 98.9506 11.8164 98.7315 11.6223C98.5101 11.4282 98.2434 11.3306 97.9358 11.3306C97.4919 11.3306 97.1446 11.5065 96.8892 11.8595C96.6361 12.2126 96.5078 12.6632 96.5078 13.2137C96.5078 13.7427 96.6293 14.1718 96.8733 14.5021C97.131 14.854 97.4783 15.0299 97.9131 15.0299C98.3035 15.0299 98.6157 14.8835 98.8529 14.5895C99.0822 14.3182 99.1946 13.9913 99.1946 13.6099Z" fill="white"/>
<path d="M110.601 13.1467C110.601 13.9696 110.366 14.6439 109.896 15.1728C109.404 15.7166 108.752 15.9879 107.936 15.9879C107.152 15.9879 106.526 15.7279 106.058 15.2058C105.593 14.6847 105.36 14.0275 105.36 13.2352C105.36 12.4066 105.6 11.7266 106.081 11.1988C106.562 10.671 107.209 10.4065 108.026 10.4065C108.81 10.4065 109.442 10.6664 109.919 11.1875C110.373 11.6937 110.601 12.3475 110.601 13.1467ZM109.368 13.1853C109.368 12.6915 109.262 12.2681 109.049 11.9151C108.799 11.4883 108.444 11.2749 107.981 11.2749C107.505 11.2749 107.141 11.4883 106.89 11.9151C106.677 12.2681 106.572 12.6983 106.572 13.2068C106.572 13.7006 106.678 14.124 106.89 14.477C107.148 14.9038 107.507 15.1172 107.97 15.1172C108.424 15.1172 108.782 14.9004 109.038 14.4657C109.257 14.1058 109.368 13.679 109.368 13.1853Z" fill="white"/>
<path d="M116.998 15.8666H115.809V12.8018C115.809 11.8574 115.451 11.3852 114.73 11.3852C114.377 11.3852 114.092 11.5146 113.872 11.7745C113.651 12.0345 113.541 12.341 113.541 12.6917V15.8655H112.351V12.0447C112.351 11.5748 112.337 11.0651 112.309 10.5134H113.353L113.409 11.35H113.441C113.581 11.0901 113.788 10.8755 114.058 10.7041C114.381 10.5043 114.741 10.4033 115.137 10.4033C115.636 10.4033 116.051 10.5645 116.381 10.888C116.793 11.2842 116.998 11.8756 116.998 12.6611V15.8666Z" fill="white"/>
<path d="M125.004 11.4066H123.694V14.006C123.694 14.6666 123.926 14.9969 124.387 14.9969C124.601 14.9969 124.778 14.9788 124.917 14.9413L124.948 15.8437C124.713 15.9323 124.404 15.9765 124.024 15.9765C123.554 15.9765 123.188 15.8335 122.924 15.5475C122.658 15.2614 122.527 14.7801 122.527 14.1047V11.4066H121.745V10.5155H122.527V9.53475L123.692 9.18286V10.5144H125.002V11.4066H125.004Z" fill="white"/>
<path d="M131.301 15.8665H130.111V12.8244C130.111 11.8652 129.752 11.3851 129.033 11.3851C128.482 11.3851 128.105 11.6632 127.898 12.2194C127.863 12.3363 127.843 12.4793 127.843 12.6473V15.8654H126.654V8.0603H127.843V11.2852H127.865C128.24 10.6983 128.777 10.4054 129.473 10.4054C129.965 10.4054 130.373 10.5666 130.696 10.8901C131.099 11.2931 131.301 11.8925 131.301 12.6848V15.8665Z" fill="white"/>
<path d="M137.798 12.938C137.798 13.1514 137.782 13.3308 137.754 13.4772H134.186C134.202 14.0061 134.372 14.4091 134.702 14.6884C135.004 14.9381 135.394 15.0629 135.87 15.0629C136.398 15.0629 136.879 14.9789 137.313 14.8098L137.499 15.6362C136.992 15.8564 136.395 15.9665 135.704 15.9665C134.875 15.9665 134.222 15.7224 133.75 15.2343C133.275 14.7462 133.041 14.0913 133.041 13.2695C133.041 12.4624 133.26 11.7904 133.701 11.2546C134.162 10.6825 134.785 10.3965 135.572 10.3965C136.341 10.3965 136.926 10.6825 137.321 11.2546C137.64 11.7087 137.798 12.2706 137.798 12.938ZM136.663 12.6304C136.672 12.2774 136.593 11.9732 136.432 11.7166C136.226 11.3863 135.911 11.2206 135.486 11.2206C135.097 11.2206 134.781 11.3818 134.539 11.7053C134.341 11.9629 134.224 12.2706 134.186 12.6304H136.663Z" fill="white"/>
</g>
<defs>
<clipPath id="clip0_1503_21197">
<rect width="153.241" height="45.4046" fill="white" transform="translate(0.213867 0.618408)"/>
</clipPath>
</defs>
</svg>
