<svg width="280" height="280" viewBox="0 0 280 280" fill="none" xmlns="http://www.w3.org/2000/svg">
<g opacity="0.8" clip-path="url(#clip0_5008_5322)">
<path d="M251.41 1.29619C245.546 3.78588 240.75 6.88347 237.728 9.85384C236.216 11.341 235.177 12.7679 234.655 14.0423C234.133 15.317 234.156 16.3596 234.61 17.1706C235.065 17.9815 235.996 18.6388 237.472 19.0652C238.947 19.4914 240.879 19.6573 243.157 19.5351C247.707 19.291 253.465 17.9074 259.329 15.4177C265.193 12.9281 269.99 9.83047 273.011 6.8601C274.524 5.37297 275.562 3.94607 276.084 2.67167C276.607 1.39692 276.584 0.35434 276.129 -0.456633C275.674 -1.26761 274.744 -1.92484 273.268 -2.35123C271.792 -2.77749 269.861 -2.94335 267.583 -2.82114C263.033 -2.57703 257.275 -1.1935 251.41 1.29619Z" fill="#61399F" stroke="#61399F" stroke-width="1.5319"/>
<path d="M236.782 20.7324L233.815 17.3712L238.239 19.6455L236.782 20.7324Z" fill="#0E9AA7"/>
<path d="M251.109 0.784709C245.208 3.29038 240.169 6.06768 236.793 8.52397C235.102 9.75465 233.852 10.8877 233.116 11.8492C232.748 12.3302 232.525 12.7467 232.429 13.0925C232.334 13.4344 232.371 13.6727 232.466 13.8432C232.562 14.0137 232.755 14.1857 233.123 14.331C233.496 14.4779 234.01 14.5815 234.672 14.625C235.996 14.7119 237.792 14.5519 239.947 14.1493C244.25 13.3458 249.867 11.5991 255.768 9.09344C261.67 6.58777 266.709 3.81046 270.085 1.35417C271.776 0.123492 273.026 -1.00957 273.762 -1.97102C274.13 -2.45208 274.353 -2.86851 274.449 -3.21432C274.544 -3.55627 274.507 -3.79456 274.412 -3.96506C274.316 -4.13556 274.123 -4.30754 273.755 -4.45284C273.382 -4.59978 272.868 -4.70335 272.206 -4.74683C270.882 -4.83372 269.086 -4.67374 266.93 -4.27115C262.628 -3.46763 257.011 -1.72096 251.109 0.784709Z" fill="#7ACECE" stroke="#61399F" stroke-width="1.06859"/>
<mask id="mask0_5008_5322" style="mask-type:alpha" maskUnits="userSpaceOnUse" x="232" y="-3" width="46" height="24">
<path d="M251.571 3.15071C245.485 5.73444 240.392 8.77301 237.074 11.5841C235.413 12.9919 234.22 14.323 233.563 15.4916C232.898 16.6736 232.835 17.5842 233.201 18.237C233.567 18.8898 234.43 19.4068 235.91 19.6782C237.374 19.9465 239.313 19.9478 241.611 19.6747C246.199 19.1293 252.086 17.5058 258.172 14.9221C264.257 12.3384 269.351 9.2998 272.669 6.4887C274.33 5.08095 275.523 3.74984 276.18 2.58122C276.845 1.39925 276.908 0.488633 276.542 -0.164158C276.176 -0.81695 275.312 -1.33401 273.833 -1.60537C272.369 -1.87366 270.43 -1.87495 268.132 -1.60185C263.544 -1.05649 257.657 0.56698 251.571 3.15071Z" fill="#E5E5E5" stroke="black" stroke-width="1.06859"/>
</mask>
<g mask="url(#mask0_5008_5322)">
</g>
<circle cx="124.641" cy="59.1474" r="5.90053" transform="rotate(22.1544 124.641 59.1474)" fill="#FCBC69" stroke="#41246E" stroke-width="1.17706"/>
<path d="M205.142 35.1996C202.83 24.2173 195.25 20.9811 190.944 20.857L188.628 25.9707C197.786 28.5966 198.072 31.9974 201.711 42.7754C204.623 51.3978 213.629 55.8822 217.768 57.0466L220.398 51.2385C215.74 50.549 207.267 45.2914 205.142 35.1996Z" fill="#269797" stroke="#41246E" stroke-width="0.774639"/>
<path d="M143.448 15.5496C148.491 12.8114 152.296 9.00371 154.39 5.09552C156.487 1.18091 156.83 -2.74525 155.147 -5.84426C153.464 -8.94327 149.984 -10.7936 145.559 -11.1664C141.141 -11.5385 135.875 -10.4202 130.833 -7.68197C125.79 -4.94374 121.985 -1.13604 119.891 2.77215C117.794 6.68677 117.451 10.6129 119.134 13.7119C120.817 16.8109 124.297 18.6613 128.722 19.0341C133.14 19.4062 138.406 18.2879 143.448 15.5496Z" fill="white" stroke="#61399F" stroke-width="1.46362"/>
<path d="M145.554 19.3897C150.629 16.6338 154.468 12.797 156.585 8.84555C158.704 4.88965 159.071 0.881196 157.341 -2.30437C155.612 -5.48994 152.05 -7.36476 147.578 -7.74144C143.111 -8.11769 137.802 -6.98685 132.727 -4.23096C127.652 -1.47508 123.813 2.36173 121.696 6.31314C119.577 10.269 119.21 14.2775 120.94 17.4631C122.669 20.6486 126.231 22.5234 130.703 22.9001C135.17 23.2764 140.479 22.1455 145.554 19.3897Z" fill="#FD8E6E" stroke="#61399F" stroke-width="1.02096"/>
<path d="M138.844 159.478L151.772 146.55C152.163 146.159 152.749 146.04 153.262 146.246L167.901 152.14C169.137 152.638 169.018 154.425 167.727 154.754L140.16 161.789C138.802 162.135 137.853 160.469 138.844 159.478Z" fill="white" stroke="#61399F" stroke-width="0.614934"/>
<path d="M168.048 152.027L152.971 146.205C152.582 146.054 152.281 145.736 152.154 145.339L147.328 130.269C146.937 129.048 148.278 128.001 149.368 128.677L162.798 137.015C163.01 137.146 163.182 137.333 163.296 137.554L169.77 150.109C170.351 151.236 169.231 152.483 168.048 152.027Z" fill="#61399F" stroke="#61399F" stroke-width="0.614934"/>
<path d="M156.233 142.953L181.279 117.907C182.29 116.896 181.284 115.204 179.913 115.61L149.697 124.566C148.956 124.786 148.54 125.573 148.777 126.309L153.946 142.4C154.261 143.382 155.504 143.682 156.233 142.953Z" fill="#AF93CF" stroke="#61399F" stroke-width="0.614934"/>
<path d="M181.035 117.983L156.127 142.892C155.435 143.584 155.665 144.758 156.568 145.137L171.849 151.555C172.601 151.871 173.461 151.469 173.701 150.689L183.328 119.363C183.75 117.989 182.052 116.967 181.035 117.983Z" fill="white" stroke="#61399F" stroke-width="0.614934"/>
<path d="M152.025 145.105L147.348 130.698C146.931 129.414 145.108 129.432 144.717 130.724L136.438 158.089C136.022 159.462 137.718 160.477 138.732 159.463L151.689 146.506C152.056 146.139 152.185 145.598 152.025 145.105Z" fill="#594076" stroke="#61399F" stroke-width="0.614934"/>
<path d="M180.306 129.396L167.923 132.151L161.181 138.894L178.32 135.536L180.306 129.396Z" fill="#AF93CF"/>
<path d="M176.551 139.424L177.212 137.316L158.845 141.229L156.674 143.4L176.551 139.424Z" fill="#AF93CF"/>
<path d="M305.919 76.5492L306.444 72.487L298.641 73.2353L251.348 78.8937C249.273 82.7184 250.281 84.4293 251.852 84.6321L267.921 82.7941C268.872 82.6853 269.736 83.3578 269.863 84.3069L271.004 92.7899L271.008 92.8189C271.083 93.382 271.276 93.9394 271.678 94.3416C273.96 96.6287 276.713 94.2641 277.779 92.7801C279.678 90.1381 283.665 84.3514 285.021 82.8299C287.357 80.208 288.101 80.4823 289.842 80.0022L304.066 78.3753C305.03 78.2651 305.795 77.5116 305.919 76.5492Z" fill="#E4A553" stroke="#61399F" stroke-width="1.21675"/>
<path d="M271.67 94.3416C272.898 95.5952 274.08 95.3087 274.72 95.0856L274.671 91.391L274.946 77.0246L251.195 78.6988C249.192 83.3562 250.371 84.5051 251.841 84.5779L267.924 82.7888C268.873 82.6831 269.734 83.3552 269.861 84.3022L271.002 92.7904L271.006 92.822C271.082 93.3835 271.273 93.9371 271.67 94.3416Z" fill="#AE7123" stroke="#61399F" stroke-width="1.21675"/>
<path d="M301.887 74.4552C304.83 74.133 306.955 71.3495 304.988 70.3931L295.895 65.9716C295.008 65.5406 294.897 64.6143 295.619 63.6834L302.849 54.3647C304.444 52.3094 301.858 50.9968 299.056 52.4394L286.074 59.1231C284.835 59.7612 283.422 59.907 282.556 59.486L273.42 55.0438C271.453 54.0874 267.693 56.0756 267.932 57.9453L269.041 66.6023C269.148 67.4384 268.374 68.452 267.124 69.1128L254.183 75.9549C251.388 77.4326 251.71 79.9483 254.653 79.6261L268.28 78.1343C269.596 77.9902 270.56 78.4587 270.667 79.2949L271.776 87.9519C272.015 89.8216 275.975 89.3881 277.555 87.3193L284.868 77.7403C285.574 76.8151 286.943 76.0911 288.26 75.947L301.887 74.4552Z" fill="white" stroke="#61399F" stroke-width="1.21675"/>
<path d="M301.971 74.0818C304.453 73.8527 306.291 71.4789 304.603 70.6824L294.928 66.1175C294.525 65.9269 293.998 65.8474 293.41 65.888L282.792 66.6212L271.027 67.777C270.344 67.8441 269.623 68.0656 268.97 68.4086L254.161 76.1967C251.866 77.4035 252.13 79.4684 254.544 79.1985L268.586 77.6293C269.949 77.477 270.956 77.951 271.091 78.8084L272.591 88.3228C272.783 89.5407 275.376 89.2498 276.43 87.8921L284.572 77.4038C285.319 76.4425 286.746 75.6942 288.115 75.5463L299.889 74.274L301.971 74.0818Z" fill="#F9C37E"/>
</g>
<defs>
<clipPath id="clip0_5008_5322">
<rect width="280" height="280" fill="white"/>
</clipPath>
</defs>
</svg>
