<svg width="100" height="61" viewBox="0 0 100 61" fill="none" xmlns="http://www.w3.org/2000/svg">
<path d="M13.8582 8.15859C13.8201 8.2269 13.7666 8.28536 13.7018 8.32931C13.6371 8.37326 13.563 8.40148 13.4855 8.41172C13.4079 8.42196 13.3291 8.41395 13.2552 8.38831C13.1812 8.36267 13.1144 8.32012 13.0598 8.26405C11.0713 6.21189 10.7214 3.84337 12.0103 1.15849C12.7234 -0.317862 13.4013 -0.383142 14.044 0.962645C15.2325 3.44331 15.1706 5.84196 13.8582 8.15859Z" fill="#B1B1B1"/>
<path d="M6.97658 11.6384C7.52834 13.7873 8.70296 15.3427 9.60015 15.1123C10.4974 14.882 10.7774 12.9531 10.2256 10.8042C9.67386 8.65518 8.49924 7.09983 7.60204 7.33019C6.70484 7.56055 6.42481 9.48939 6.97658 11.6384Z" fill="#B1B1B1"/>
<path d="M16.174 10.4741C16.1062 10.4491 16.0446 10.4097 15.9934 10.3587C15.9422 10.3077 15.9027 10.2463 15.8774 10.1786C15.8521 10.1109 15.8418 10.0386 15.847 9.96649C15.8523 9.89443 15.873 9.82435 15.9078 9.76103C17.3541 7.12972 21.3261 7.87291 23.2695 9.30909C23.3385 9.36061 23.3931 9.42901 23.428 9.5077C23.4629 9.5864 23.477 9.67276 23.469 9.75848C23.4609 9.8442 23.4309 9.92641 23.3819 9.99721C23.3329 10.068 23.2665 10.125 23.1892 10.1628C20.9294 11.2608 18.5911 11.3646 16.174 10.4741Z" fill="#B1B1B1"/>
<path d="M19.3827 14.1943C19.4574 14.2301 19.522 14.2839 19.5708 14.3508C19.6197 14.4176 19.6512 14.4956 19.6626 14.5776C19.6741 14.6596 19.665 14.7432 19.6364 14.8209C19.6077 14.8985 19.5602 14.9679 19.4982 15.0228C17.5699 16.7302 15.3387 17.3077 12.8044 16.7553C12.6759 16.7278 12.5637 16.65 12.4921 16.539C12.4206 16.428 12.3957 16.2927 12.4228 16.1627C13.0405 13.1397 17.2586 13.1799 19.3827 14.1943Z" fill="#B1B1B1"/>
<path d="M4.48825 15.0278C6.81827 16.8356 7.89456 19.2159 7.71713 22.1686C7.7123 22.2446 7.69021 22.3186 7.65253 22.3849C7.61485 22.4512 7.56257 22.508 7.49965 22.5511C7.43674 22.5942 7.36484 22.6224 7.28941 22.6335C7.21399 22.6447 7.13701 22.6385 7.06432 22.6155C4.03128 21.6563 2.39926 18.1211 3.71994 15.2187C3.75176 15.1496 3.79869 15.0887 3.85725 15.0402C3.91581 14.9918 3.98452 14.9571 4.05828 14.9388C4.13204 14.9205 4.20898 14.919 4.2834 14.9344C4.35782 14.9498 4.42783 14.9817 4.48825 15.0278Z" fill="#B1B1B1"/>
<path d="M14.0995 22.801C15.9737 22.0209 17.2209 20.7346 16.8852 19.9281C16.5495 19.1216 14.758 19.1002 12.8838 19.8804C11.0096 20.6605 9.76239 21.9468 10.0981 22.7533C10.4338 23.5598 12.2253 23.5812 14.0995 22.801Z" fill="#B1B1B1"/>
<path d="M6.33604 30.404C2.98162 30.2986 1.11358 26.8537 1.39982 23.6349C1.4077 23.5509 1.43663 23.4702 1.48394 23.4003C1.53124 23.3305 1.59538 23.2736 1.67045 23.2351C1.74552 23.1966 1.82909 23.1776 1.91343 23.1799C1.99778 23.1822 2.08019 23.2057 2.15306 23.2482C4.69063 24.7346 6.25403 26.919 6.84323 29.8014C6.85841 29.8757 6.85661 29.9524 6.83794 30.0258C6.81928 30.0992 6.78424 30.1675 6.73545 30.2254C6.68666 30.2834 6.62539 30.3296 6.55622 30.3605C6.48705 30.3914 6.41178 30.4063 6.33604 30.404Z" fill="#B1B1B1"/>
<path d="M14.2156 28.2151C13.0272 29.581 11.4922 30.3075 9.61081 30.3945C9.53232 30.3975 9.45419 30.3823 9.38259 30.35C9.31099 30.3177 9.24787 30.2692 9.19821 30.2083C9.14855 30.1475 9.1137 30.0759 9.09642 29.9993C9.07913 29.9227 9.07988 29.8431 9.0986 29.7668C9.67776 27.5071 11.1876 26.1897 13.6281 25.8148C16.867 25.3177 14.9186 27.4066 14.2156 28.2151Z" fill="#B1B1B1"/>
<path d="M11.081 33.4931C9.65875 34.9104 9.00725 36.5626 9.62586 37.1834C10.2445 37.8042 11.8989 37.1584 13.3212 35.7411C14.7435 34.3238 15.395 32.6716 14.7764 32.0508C14.1578 31.43 12.5033 32.0758 11.081 33.4931Z" fill="#B1B1B1"/>
<path d="M0.842315 32.4727C0.856409 32.4085 0.883235 32.3477 0.921239 32.2939C0.959243 32.2401 1.00767 32.1944 1.06372 32.1594C1.11976 32.1243 1.18231 32.1007 1.24775 32.0898C1.31318 32.079 1.38019 32.0811 1.44491 32.0961C4.4043 32.789 6.30246 34.632 7.1394 37.6248C7.16211 37.7055 7.16426 37.7907 7.14564 37.8724C7.12702 37.9541 7.08824 38.0299 7.03282 38.0928C6.9774 38.1557 6.90711 38.2038 6.82836 38.2326C6.74962 38.2613 6.66492 38.2699 6.582 38.2576C3.5523 37.8023 1.65079 36.2841 0.877467 33.703C0.756948 33.3012 0.745231 32.8912 0.842315 32.4727Z" fill="#B1B1B1"/>
<path d="M12.1327 40.2439C11.0499 41.8986 10.7892 43.6437 11.5504 44.1418C12.3116 44.6399 13.8064 43.7023 14.8891 42.0477C15.9719 40.3931 16.2326 38.648 15.4714 38.1499C14.7102 37.6518 13.2154 38.5893 12.1327 40.2439Z" fill="#B1B1B1"/>
<path d="M4.16753 44.7357C2.93891 43.7616 2.18567 42.62 1.90781 41.311C1.8916 41.2368 1.8928 41.1598 1.91133 41.086C1.92985 41.0122 1.9652 40.9436 2.01467 40.8854C2.06413 40.8272 2.12639 40.781 2.19665 40.7503C2.26692 40.7197 2.34333 40.7053 2.42001 40.7084C5.44636 40.8356 7.64247 42.2367 9.00835 44.9115C9.04143 44.9757 9.05997 45.0465 9.06266 45.1188C9.06536 45.191 9.05214 45.2632 9.02394 45.3301C8.99574 45.397 8.95323 45.4571 8.89937 45.5062C8.84551 45.5554 8.78159 45.5923 8.71207 45.6145C7.07838 46.1401 5.56353 45.8472 4.16753 44.7357Z" fill="#B1B1B1"/>
<path d="M17.1229 48.743C16.5555 49.682 15.8675 50.8822 14.7477 50.8621C14.6341 50.8608 14.5243 50.8202 14.4366 50.7471C14.3489 50.674 14.2885 50.5728 14.2656 50.4604C13.6262 47.3905 14.6054 45.2178 17.2033 43.9423C17.2726 43.9086 17.3487 43.8912 17.4258 43.8916C17.5029 43.892 17.5788 43.9101 17.6478 43.9446C17.7167 43.9791 17.7768 44.029 17.8234 44.0904C17.87 44.1518 17.9017 44.2232 17.9163 44.2989C18.2176 45.8823 17.9531 47.3637 17.1229 48.743Z" fill="#B1B1B1"/>
<path d="M9.18863 53.1166C7.12308 52.8321 5.60991 51.719 4.64911 49.7773C4.61427 49.7064 4.59666 49.6282 4.5977 49.5492C4.59874 49.4702 4.61841 49.3926 4.65511 49.3226C4.69181 49.2526 4.7445 49.1923 4.8089 49.1466C4.87329 49.1008 4.94759 49.0708 5.02573 49.0592C8.12908 48.5939 10.5545 49.5547 12.302 51.9416C12.3459 52.002 12.3757 52.0715 12.3894 52.1449C12.403 52.2183 12.4001 52.2939 12.3809 52.366C12.3616 52.4382 12.3265 52.5051 12.2782 52.562C12.2298 52.6189 12.1693 52.6643 12.1012 52.6948C11.1671 53.1166 10.1963 53.2572 9.18863 53.1166Z" fill="#B1B1B1"/>
<path d="M18.7252 56.1806C18.6589 56.1569 18.5983 56.1202 18.5473 56.0726C18.4963 56.0251 18.456 55.9678 18.429 55.9044C17.7594 54.3075 17.8331 52.714 18.6499 51.1239C19.0583 50.3304 19.5823 49.768 20.2217 49.4366C20.288 49.4023 20.3612 49.383 20.4358 49.3802C20.5104 49.3775 20.5846 49.3913 20.6529 49.4206C20.7212 49.45 20.782 49.4941 20.8307 49.5499C20.8795 49.6056 20.915 49.6716 20.9347 49.7429C21.5474 51.9022 21.2745 53.946 20.1162 55.8743C19.8517 56.3162 19.3881 56.4183 18.7252 56.1806Z" fill="#B1B1B1"/>
<path d="M14.4611 60.0217H12.7036C10.6983 59.4224 9.42447 58.5068 8.88214 57.2749C8.85355 57.2097 8.83914 57.1392 8.83987 57.068C8.8406 56.9969 8.85644 56.9267 8.88636 56.8621C8.91627 56.7975 8.95957 56.74 9.01339 56.6934C9.0672 56.6469 9.1303 56.6123 9.1985 56.5919C12.1646 55.7014 14.7641 56.217 16.997 58.1386C17.0516 58.1854 17.0955 58.2433 17.1258 58.3085C17.1561 58.3737 17.172 58.4447 17.1724 58.5166C17.1729 58.5885 17.1579 58.6596 17.1286 58.7252C17.0992 58.7908 17.056 58.8493 17.0021 58.8968C16.2823 59.5262 15.4353 59.9012 14.4611 60.0217Z" fill="#B1B1B1"/>
<g clip-path="url(#clip0_4878_17384)">
<g clip-path="url(#clip1_4878_17384)">
<path d="M28.0358 23.5996C28.5539 23.5996 28.9739 23.1877 28.9739 22.6797C28.9739 22.1716 28.5539 21.7598 28.0358 21.7598C27.5177 21.7598 27.0977 22.1716 27.0977 22.6797C27.0977 23.1877 27.5177 23.5996 28.0358 23.5996Z" fill="#959596"/>
<path d="M25.7305 27.3694V25.4148C25.7305 25.4008 25.7359 25.3874 25.7457 25.3775L27.2043 23.9023C27.2095 23.8971 27.2156 23.8929 27.2223 23.8901C27.2291 23.8872 27.2363 23.8858 27.2435 23.8857H28.8699C28.8772 23.8857 28.8846 23.8872 28.8914 23.89C28.8982 23.8929 28.9044 23.897 28.9096 23.9023L30.3165 25.3705C30.3259 25.3804 30.3312 25.3936 30.3312 25.4074V27.3027C30.3312 27.3169 30.3369 27.3304 30.3471 27.3404C30.3574 27.3505 30.3712 27.3561 30.3856 27.3561H32.3169C32.3309 27.3561 32.3443 27.3612 32.3544 27.3705L33.8669 28.7565C33.8724 28.7616 33.8768 28.7676 33.8798 28.7743C33.8828 28.781 33.8844 28.7882 33.8844 28.7955L33.8827 30.3844C33.8827 30.3916 33.8813 30.3987 33.8785 30.4054C33.8757 30.412 33.8716 30.4179 33.8664 30.4228L32.3637 31.8526C32.3536 31.8622 32.3399 31.8675 32.3256 31.8675H30.3878C30.3734 31.8675 30.3595 31.8619 30.3493 31.8519C30.3391 31.8419 30.3334 31.8283 30.3334 31.8141L30.3301 30.426C30.3301 30.4118 30.3358 30.3983 30.3461 30.3882C30.3563 30.3782 30.3701 30.3726 30.3846 30.3726H32.3071C32.3215 30.3726 32.3353 30.367 32.3456 30.357C32.3558 30.347 32.3615 30.3334 32.3615 30.3192L32.3582 28.9311C32.3582 28.9169 32.3525 28.9033 32.3423 28.8933C32.3321 28.8833 32.3182 28.8777 32.3038 28.8777H30.3856C30.3712 28.8777 30.3574 28.8721 30.3471 28.8621C30.3369 28.852 30.3312 28.8385 30.3312 28.8243V27.4228C30.3312 27.4087 30.3255 27.3951 30.3152 27.3851C30.305 27.3751 30.2912 27.3694 30.2767 27.3694H28.8334C28.8189 27.3694 28.8051 27.3638 28.7949 27.3538C28.7847 27.3438 28.7789 27.3302 28.7789 27.316L28.7806 25.434C28.7806 25.4199 28.7748 25.4063 28.7646 25.3963C28.7544 25.3863 28.7406 25.3807 28.7261 25.3807H27.323C27.3086 25.3807 27.2947 25.3863 27.2845 25.3963C27.2743 25.4063 27.2686 25.4199 27.2686 25.434V27.3155C27.2686 27.3297 27.2628 27.3432 27.2526 27.3533C27.2424 27.3633 27.2286 27.3689 27.2141 27.3689L25.7305 27.3694Z" fill="#27275B"/>
<path d="M42.9499 35.2962C40.6473 35.0271 39.2802 33.5167 38.9116 31.3293C38.4237 28.4313 39.0003 24.7463 42.5421 24.0325C44.2675 23.685 46.1067 23.9119 47.4379 25.1292C48.1602 25.7901 48.5069 26.6084 48.4778 27.584C48.4774 27.5979 48.4715 27.6111 48.4613 27.6207C48.4512 27.6304 48.4375 27.6358 48.4234 27.6358H46.227C46.2135 27.6358 46.2005 27.6309 46.1905 27.6219C46.1806 27.6129 46.1743 27.6005 46.1731 27.5872C46.1052 26.8362 45.772 26.284 45.1735 25.9305C44.7156 25.6598 44.1782 25.5782 43.6375 25.6043C41.476 25.7095 41.0791 27.9535 41.0606 29.6075C41.0426 31.2418 41.4428 33.3549 43.4698 33.6438C44.7199 33.8216 45.9025 33.2716 46.1747 31.9716C46.1871 31.9129 46.2069 31.7741 46.2341 31.5552C46.2358 31.5423 46.2421 31.5304 46.2519 31.5218C46.2617 31.5132 46.2743 31.5083 46.2874 31.5082L48.4778 31.4895C48.492 31.4893 48.5057 31.4946 48.5159 31.5042C48.5262 31.5137 48.5323 31.5269 48.5328 31.5407C48.5553 32.0782 48.4544 32.5799 48.2301 33.0458C47.6813 34.1857 46.4176 34.9598 45.1811 35.2161C44.4787 35.3613 43.735 35.388 42.9499 35.2962Z" fill="#27275B"/>
<path d="M67.1213 35.3088C65.0927 35.5224 62.4765 35.1017 61.9914 32.7194C61.9141 32.3407 61.8796 31.9892 61.8879 31.665C61.8884 31.6511 61.8943 31.6379 61.9045 31.6282C61.9146 31.6186 61.9282 31.6132 61.9424 31.6132H64.1246C64.1318 31.6132 64.139 31.6146 64.1457 31.6173C64.1524 31.62 64.1584 31.624 64.1635 31.629C64.1686 31.6341 64.1725 31.64 64.1752 31.6466C64.1779 31.6531 64.1792 31.6601 64.179 31.6671C64.1667 32.5541 64.5241 33.1505 65.2511 33.4562C66.1816 33.8475 67.5743 33.7055 68.2609 32.9164C68.531 32.6057 68.654 32.0862 68.4498 31.7077C68.2702 31.3735 67.742 31.1295 67.3821 31.0093C66.0487 30.563 64.5237 30.264 63.3275 29.5171C61.8618 28.602 61.981 26.5299 62.9453 25.334C64.0761 23.9309 66.0057 23.7126 67.681 24.0019C68.0527 24.066 68.4099 24.1756 68.7526 24.3308C69.9703 24.8829 70.5535 25.825 70.5019 27.1573C70.5015 27.171 70.4956 27.184 70.4854 27.1936C70.4752 27.2032 70.4616 27.2085 70.4475 27.2085H68.2571C68.243 27.2085 68.2294 27.203 68.2194 27.1933C68.2093 27.1835 68.2035 27.1702 68.2032 27.1562C68.1487 24.948 64.521 25.2123 64.5406 26.98C64.5471 27.5753 64.987 27.8876 65.4879 28.1012C66.5077 28.5342 67.6674 28.8172 68.6306 29.1316C70.1502 29.6281 71.0039 30.5715 70.8281 32.2309C70.6299 34.0995 68.8957 35.122 67.1213 35.3088Z" fill="#27275B"/>
<path d="M50.5039 24.1662C50.5039 24.152 50.5096 24.1384 50.5199 24.1284C50.5301 24.1184 50.5439 24.1128 50.5584 24.1128C52.0346 24.1117 53.5184 24.1124 55.0099 24.1149C58.9992 24.1219 60.7317 27.0845 60.2727 30.6621C59.8676 33.8164 57.3527 35.0598 54.3941 35.1191C53.8856 35.1294 52.6072 35.1301 50.5589 35.1212C50.5445 35.1212 50.5306 35.1156 50.5204 35.1056C50.5102 35.0956 50.5045 35.082 50.5045 35.0678L50.5039 24.1662ZM54.6522 33.4218C56.8801 33.3951 57.9152 31.9718 58.0262 29.9333C58.1531 27.6098 57.0157 25.8261 54.4927 25.809C53.9591 25.8058 53.4235 25.8061 52.8859 25.81C52.8716 25.81 52.8579 25.8157 52.8478 25.8257C52.8377 25.8357 52.832 25.8493 52.832 25.8634V33.3749C52.832 33.389 52.8378 33.4026 52.848 33.4126C52.8582 33.4226 52.872 33.4282 52.8865 33.4282C53.4829 33.4307 54.0714 33.4286 54.6522 33.4218Z" fill="#27275B"/>
<path d="M72.9316 24.1641C72.932 24.1502 72.9379 24.137 72.9481 24.1274C72.9583 24.1177 72.9719 24.1123 72.986 24.1123H75.1955C75.2099 24.1123 75.2238 24.1179 75.234 24.1279C75.2442 24.138 75.2499 24.1515 75.2499 24.1657V33.3754C75.2499 33.3896 75.2557 33.4032 75.2659 33.4132C75.2761 33.4232 75.2899 33.4288 75.3044 33.4288H79.9187C79.9331 33.4288 79.947 33.4345 79.9572 33.4445C79.9674 33.4545 79.9731 33.4681 79.9731 33.4822V35.0839C79.9731 35.0981 79.9674 35.1117 79.9572 35.1217C79.947 35.1317 79.9331 35.1373 79.9187 35.1373H72.9795C72.9649 35.1373 72.9509 35.1317 72.9406 35.1217C72.9303 35.1117 72.9245 35.0981 72.9245 35.0839C72.9381 31.7417 72.967 28.4235 72.9218 25.1288C72.9174 24.8074 72.9207 24.4859 72.9316 24.1641Z" fill="#27275B"/>
<path d="M25.7304 27.3691L25.7299 28.8379C25.7299 28.8521 25.7241 28.8656 25.7139 28.8756C25.7037 28.8857 25.6899 28.8913 25.6754 28.8913L23.7567 28.8897C23.7423 28.8897 23.7285 28.8953 23.7182 28.9053C23.708 28.9153 23.7023 28.9289 23.7023 28.9431V30.3189C23.7023 30.3331 23.708 30.3467 23.7182 30.3567C23.7285 30.3667 23.7423 30.3723 23.7567 30.3723H25.676C25.6904 30.3723 25.7043 30.3779 25.7145 30.388C25.7247 30.398 25.7304 30.4115 25.7304 30.4257V31.8154C25.7304 31.8296 25.7362 31.8432 25.7464 31.8532C25.7566 31.8632 25.7704 31.8688 25.7849 31.8688L27.213 31.8667C27.2274 31.8667 27.2413 31.8723 27.2515 31.8823C27.2617 31.8923 27.2674 31.9059 27.2674 31.9201L27.268 33.8053C27.268 33.8123 27.2694 33.8193 27.2722 33.8258C27.2749 33.8324 27.2789 33.8383 27.284 33.8432C27.289 33.8482 27.295 33.8521 27.3016 33.8548C27.3082 33.8574 27.3153 33.8587 27.3224 33.8587L28.725 33.8549C28.7395 33.8548 28.7533 33.8491 28.7635 33.8391C28.7737 33.8291 28.7794 33.8156 28.7794 33.8015V31.9206C28.7794 31.9065 28.7852 31.8929 28.7954 31.8829C28.8056 31.8729 28.8194 31.8672 28.8339 31.8672L30.2767 31.8678C30.2911 31.8678 30.305 31.8734 30.3152 31.8834C30.3254 31.8934 30.3312 31.907 30.3312 31.9212V33.824C30.3311 33.8377 30.3259 33.8507 30.3165 33.8603L28.9106 35.3338C28.9057 35.3392 28.8996 35.3435 28.8927 35.3464C28.8859 35.3494 28.8785 35.3509 28.8709 35.3509H27.2413C27.2339 35.3509 27.2267 35.3495 27.2199 35.3466C27.2132 35.3438 27.2071 35.3396 27.2021 35.3344L25.7457 33.8523C25.7359 33.8423 25.7304 33.8291 25.7304 33.8154V31.934C25.7304 31.9198 25.7247 31.9062 25.7145 31.8962C25.7043 31.8862 25.6904 31.8806 25.676 31.8806H23.7502C23.7359 31.8806 23.7222 31.8752 23.7121 31.8656L22.2077 30.4359C22.2026 30.4309 22.1985 30.425 22.1957 30.4184C22.1929 30.4118 22.1914 30.4047 22.1914 30.3974V28.8053C22.1914 28.7979 22.193 28.7906 22.196 28.7839C22.199 28.7772 22.2034 28.7712 22.2088 28.7664L23.705 27.3862C23.7148 27.377 23.7281 27.3718 23.742 27.3718L25.7304 27.3691Z" fill="#27275B"/>
<path d="M28.0388 31.1198C28.8844 31.1198 29.5699 30.4477 29.5699 29.6185C29.5699 28.7894 28.8844 28.1172 28.0388 28.1172C27.1933 28.1172 26.5078 28.7894 26.5078 29.6185C26.5078 30.4477 27.1933 31.1198 28.0388 31.1198Z" fill="#27275B"/>
<path d="M20.9562 30.5391C21.4746 30.5391 21.8949 30.127 21.8949 29.6187C21.8949 29.1103 21.4746 28.6982 20.9562 28.6982C20.4378 28.6982 20.0176 29.1103 20.0176 29.6187C20.0176 30.127 20.4378 30.5391 20.9562 30.5391Z" fill="#959596"/>
<path d="M35.1153 30.5302C35.6331 30.5302 36.0529 30.1185 36.0529 29.6108C36.0529 29.103 35.6331 28.6914 35.1153 28.6914C34.5975 28.6914 34.1777 29.103 34.1777 29.6108C34.1777 30.1185 34.5975 30.5302 35.1153 30.5302Z" fill="#959596"/>
<path d="M28.0369 37.4787C28.5556 37.4787 28.9761 37.0663 28.9761 36.5577C28.9761 36.0491 28.5556 35.6367 28.0369 35.6367C27.5182 35.6367 27.0977 36.0491 27.0977 36.5577C27.0977 37.0663 27.5182 37.4787 28.0369 37.4787Z" fill="#959596"/>
</g>
</g>
<path d="M86.1398 8.15859C86.1779 8.2269 86.2315 8.28536 86.2962 8.32931C86.3609 8.37326 86.435 8.40148 86.5126 8.41172C86.5901 8.42196 86.669 8.41395 86.7429 8.38831C86.8168 8.36267 86.8837 8.32012 86.9382 8.26405C88.9268 6.21189 89.2766 3.84337 87.9878 1.15849C87.2747 -0.317862 86.5968 -0.383142 85.954 0.962645C84.7656 3.44331 84.8275 5.84196 86.1398 8.15859Z" fill="#B1B1B1"/>
<path d="M93.0215 11.6384C92.4697 13.7873 91.2951 15.3427 90.3979 15.1123C89.5007 14.882 89.2207 12.9531 89.7724 10.8042C90.3242 8.65518 91.4988 7.09983 92.396 7.33019C93.2932 7.56055 93.5732 9.48939 93.0215 11.6384Z" fill="#B1B1B1"/>
<path d="M83.8241 10.4741C83.8918 10.4491 83.9534 10.4097 84.0046 10.3587C84.0558 10.3077 84.0954 10.2463 84.1206 10.1786C84.1459 10.1109 84.1563 10.0386 84.151 9.96649C84.1458 9.89443 84.125 9.82435 84.0902 9.76103C82.644 7.12972 78.6719 7.87291 76.7285 9.30909C76.6596 9.36061 76.605 9.42901 76.57 9.5077C76.5351 9.5864 76.521 9.67276 76.5291 9.75848C76.5371 9.8442 76.5671 9.92641 76.6161 9.99721C76.6651 10.068 76.7315 10.125 76.8089 10.1628C79.0686 11.2608 81.407 11.3646 83.8241 10.4741Z" fill="#B1B1B1"/>
<path d="M80.6153 14.1943C80.5407 14.2301 80.4761 14.2839 80.4272 14.3508C80.3784 14.4176 80.3468 14.4956 80.3354 14.5776C80.324 14.6596 80.333 14.7432 80.3617 14.8209C80.3904 14.8985 80.4378 14.9679 80.4998 15.0228C82.4281 16.7302 84.6594 17.3077 87.1936 16.7553C87.3221 16.7278 87.4344 16.65 87.5059 16.539C87.5774 16.428 87.6024 16.2927 87.5752 16.1627C86.9576 13.1397 82.7394 13.1799 80.6153 14.1943Z" fill="#B1B1B1"/>
<path d="M95.5098 15.0278C93.1798 16.8356 92.1035 19.2159 92.2809 22.1686C92.2857 22.2446 92.3078 22.3186 92.3455 22.3849C92.3832 22.4512 92.4355 22.508 92.4984 22.5511C92.5613 22.5942 92.6332 22.6224 92.7086 22.6335C92.7841 22.6447 92.861 22.6385 92.9337 22.6155C95.9668 21.6563 97.5988 18.1211 96.2781 15.2187C96.2463 15.1496 96.1994 15.0887 96.1408 15.0402C96.0822 14.9918 96.0135 14.9571 95.9398 14.9388C95.866 14.9205 95.7891 14.919 95.7146 14.9344C95.6402 14.9498 95.5702 14.9817 95.5098 15.0278Z" fill="#B1B1B1"/>
<path d="M85.8985 22.801C84.0243 22.0209 82.7771 20.7346 83.1128 19.9281C83.4486 19.1216 85.2401 19.1002 87.1143 19.8804C88.9885 20.6605 90.2357 21.9468 89.8999 22.7533C89.5642 23.5598 87.7727 23.5812 85.8985 22.801Z" fill="#B1B1B1"/>
<path d="M93.662 30.404C97.0164 30.2986 98.8845 26.8537 98.5982 23.6349C98.5903 23.5509 98.5614 23.4702 98.5141 23.4003C98.4668 23.3305 98.4027 23.2736 98.3276 23.2351C98.2525 23.1966 98.169 23.1776 98.0846 23.1799C98.0003 23.1822 97.9179 23.2057 97.845 23.2482C95.3074 24.7346 93.744 26.919 93.1548 29.8014C93.1396 29.8757 93.1414 29.9524 93.1601 30.0258C93.1788 30.0992 93.2138 30.1675 93.2626 30.2254C93.3114 30.2834 93.3727 30.3296 93.4418 30.3605C93.511 30.3914 93.5863 30.4063 93.662 30.404Z" fill="#B1B1B1"/>
<path d="M85.7824 28.2151C86.9709 29.581 88.5058 30.3075 90.3872 30.3945C90.4657 30.3975 90.5439 30.3823 90.6155 30.35C90.6871 30.3177 90.7502 30.2692 90.7998 30.2083C90.8495 30.1475 90.8843 30.0759 90.9016 29.9993C90.9189 29.9227 90.9182 29.8431 90.8994 29.7668C90.3203 27.5071 88.8105 26.1897 86.37 25.8148C83.131 25.3177 85.0794 27.4066 85.7824 28.2151Z" fill="#B1B1B1"/>
<path d="M88.917 33.4931C90.3393 34.9104 90.9908 36.5626 90.3722 37.1834C89.7536 37.8042 88.0991 37.1584 86.6768 35.7411C85.2545 34.3238 84.603 32.6716 85.2217 32.0508C85.8403 31.43 87.4947 32.0758 88.917 33.4931Z" fill="#B1B1B1"/>
<path d="M99.1557 32.4727C99.1416 32.4085 99.1148 32.3477 99.0768 32.2939C99.0388 32.2401 98.9904 32.1944 98.9343 32.1594C98.8783 32.1243 98.8157 32.1007 98.7503 32.0898C98.6849 32.079 98.6179 32.0811 98.5531 32.0961C95.5937 32.789 93.6956 34.632 92.8587 37.6248C92.8359 37.7055 92.8338 37.7907 92.8524 37.8724C92.871 37.9541 92.9098 38.0299 92.9652 38.0928C93.0206 38.1557 93.0909 38.2038 93.1697 38.2326C93.2484 38.2613 93.3331 38.2699 93.416 38.2576C96.4457 37.8023 98.3473 36.2841 99.1206 33.703C99.2411 33.3012 99.2528 32.8912 99.1557 32.4727Z" fill="#B1B1B1"/>
<path d="M87.8654 40.2439C88.9481 41.8986 89.2088 43.6437 88.4476 44.1418C87.6865 44.6399 86.1917 43.7023 85.1089 42.0477C84.0262 40.3931 83.7655 38.648 84.5267 38.1499C85.2878 37.6518 86.7826 38.5893 87.8654 40.2439Z" fill="#B1B1B1"/>
<path d="M95.8305 44.7357C97.0591 43.7616 97.8124 42.62 98.0902 41.311C98.1064 41.2368 98.1052 41.1598 98.0867 41.086C98.0682 41.0122 98.0328 40.9436 97.9834 40.8854C97.9339 40.8272 97.8717 40.781 97.8014 40.7503C97.7311 40.7197 97.6547 40.7053 97.578 40.7084C94.5517 40.8356 92.3556 42.2367 90.9897 44.9115C90.9566 44.9757 90.9381 45.0465 90.9354 45.1188C90.9327 45.191 90.9459 45.2632 90.9741 45.3301C91.0023 45.397 91.0448 45.4571 91.0987 45.5062C91.1525 45.5554 91.2165 45.5923 91.286 45.6145C92.9197 46.1401 94.4345 45.8472 95.8305 44.7357Z" fill="#B1B1B1"/>
<path d="M82.8751 48.743C83.4426 49.682 84.1305 50.8822 85.2504 50.8621C85.364 50.8608 85.4738 50.8202 85.5615 50.7471C85.6492 50.674 85.7095 50.5728 85.7324 50.4604C86.3718 47.3905 85.3926 45.2178 82.7948 43.9423C82.7255 43.9086 82.6494 43.8912 82.5723 43.8916C82.4952 43.892 82.4192 43.9101 82.3503 43.9446C82.2813 43.9791 82.2212 44.029 82.1747 44.0904C82.1281 44.1518 82.0963 44.2232 82.0817 44.2989C81.7804 45.8823 82.0449 47.3637 82.8751 48.743Z" fill="#B1B1B1"/>
<path d="M90.8094 53.1166C92.875 52.8321 94.3881 51.719 95.3489 49.7773C95.3838 49.7064 95.4014 49.6282 95.4003 49.5492C95.3993 49.4702 95.3796 49.3926 95.3429 49.3226C95.3062 49.2526 95.2536 49.1923 95.1892 49.1466C95.1248 49.1008 95.0505 49.0708 94.9723 49.0592C91.869 48.5939 89.4435 49.5547 87.696 51.9416C87.6521 52.002 87.6223 52.0715 87.6087 52.1449C87.595 52.2183 87.5979 52.2939 87.6172 52.366C87.6364 52.4382 87.6715 52.5051 87.7199 52.562C87.7683 52.6189 87.8287 52.6643 87.8969 52.6948C88.8309 53.1166 89.8017 53.2572 90.8094 53.1166Z" fill="#B1B1B1"/>
<path d="M81.2728 56.1806C81.3392 56.1569 81.3998 56.1202 81.4508 56.0726C81.5018 56.0251 81.5421 55.9678 81.5691 55.9044C82.2386 54.3075 82.165 52.714 81.3481 51.1239C80.9397 50.3304 80.4158 49.768 79.7764 49.4366C79.71 49.4023 79.6369 49.383 79.5623 49.3802C79.4877 49.3775 79.4135 49.3913 79.3452 49.4206C79.2768 49.45 79.2161 49.4941 79.1673 49.5499C79.1186 49.6056 79.083 49.6716 79.0633 49.7429C78.4507 51.9022 78.7235 53.946 79.8818 55.8743C80.1463 56.3162 80.61 56.4183 81.2728 56.1806Z" fill="#B1B1B1"/>
<path d="M85.5369 60.0217H87.2945C89.2998 59.4224 90.5736 58.5068 91.1159 57.2749C91.1445 57.2097 91.1589 57.1392 91.1582 57.068C91.1574 56.9969 91.1416 56.9267 91.1117 56.8621C91.0818 56.7975 91.0385 56.74 90.9847 56.6934C90.9308 56.6469 90.8677 56.6123 90.7995 56.5919C87.8335 55.7014 85.2339 56.217 83.001 58.1386C82.9464 58.1854 82.9025 58.2433 82.8723 58.3085C82.842 58.3737 82.8261 58.4447 82.8256 58.5166C82.8251 58.5885 82.8401 58.6596 82.8695 58.7252C82.8989 58.7908 82.942 58.8493 82.996 58.8968C83.7157 59.5262 84.5627 59.9012 85.5369 60.0217Z" fill="#B1B1B1"/>
<defs>
<clipPath id="clip0_4878_17384">
<rect width="60" height="16.5" fill="white" transform="translate(20 21.75)"/>
</clipPath>
<clipPath id="clip1_4878_17384">
<rect width="60" height="15.75" fill="white" transform="translate(20 21.75)"/>
</clipPath>
</defs>
</svg>
