<svg width="100" height="61" viewBox="0 0 100 61" fill="none" xmlns="http://www.w3.org/2000/svg">
<path d="M13.8582 8.15859C13.8201 8.2269 13.7666 8.28536 13.7018 8.32931C13.6371 8.37326 13.563 8.40148 13.4855 8.41172C13.4079 8.42196 13.3291 8.41395 13.2552 8.38831C13.1812 8.36267 13.1144 8.32012 13.0598 8.26405C11.0713 6.21189 10.7214 3.84337 12.0103 1.15849C12.7234 -0.317862 13.4013 -0.383142 14.044 0.962645C15.2325 3.44331 15.1706 5.84196 13.8582 8.15859Z" fill="#B1B1B1"/>
<path d="M6.97658 11.6384C7.52834 13.7873 8.70296 15.3427 9.60015 15.1123C10.4974 14.882 10.7774 12.9531 10.2256 10.8042C9.67386 8.65518 8.49924 7.09983 7.60204 7.33019C6.70484 7.56055 6.42481 9.48939 6.97658 11.6384Z" fill="#B1B1B1"/>
<path d="M16.174 10.4741C16.1062 10.4491 16.0446 10.4097 15.9934 10.3587C15.9422 10.3077 15.9027 10.2463 15.8774 10.1786C15.8521 10.1109 15.8418 10.0386 15.847 9.96649C15.8523 9.89443 15.873 9.82435 15.9078 9.76103C17.3541 7.12972 21.3261 7.87291 23.2695 9.30909C23.3385 9.36061 23.3931 9.42901 23.428 9.5077C23.4629 9.5864 23.477 9.67276 23.469 9.75848C23.4609 9.8442 23.4309 9.92641 23.3819 9.99721C23.3329 10.068 23.2665 10.125 23.1892 10.1628C20.9294 11.2608 18.5911 11.3646 16.174 10.4741Z" fill="#B1B1B1"/>
<path d="M19.3827 14.1943C19.4574 14.2301 19.522 14.2839 19.5708 14.3508C19.6197 14.4176 19.6512 14.4956 19.6626 14.5776C19.6741 14.6596 19.665 14.7432 19.6364 14.8209C19.6077 14.8985 19.5602 14.9679 19.4982 15.0228C17.5699 16.7302 15.3387 17.3077 12.8044 16.7553C12.6759 16.7278 12.5637 16.65 12.4921 16.539C12.4206 16.428 12.3957 16.2927 12.4228 16.1627C13.0405 13.1397 17.2586 13.1799 19.3827 14.1943Z" fill="#B1B1B1"/>
<path d="M4.48825 15.0278C6.81827 16.8356 7.89456 19.2159 7.71713 22.1686C7.7123 22.2446 7.69021 22.3186 7.65253 22.3849C7.61485 22.4512 7.56257 22.508 7.49965 22.5511C7.43674 22.5942 7.36484 22.6224 7.28941 22.6335C7.21399 22.6447 7.13701 22.6385 7.06432 22.6155C4.03128 21.6563 2.39926 18.1211 3.71994 15.2187C3.75176 15.1496 3.79869 15.0887 3.85725 15.0402C3.91581 14.9918 3.98452 14.9571 4.05828 14.9388C4.13204 14.9205 4.20898 14.919 4.2834 14.9344C4.35782 14.9498 4.42783 14.9817 4.48825 15.0278Z" fill="#B1B1B1"/>
<path d="M14.0995 22.801C15.9737 22.0209 17.2209 20.7346 16.8852 19.9281C16.5495 19.1216 14.758 19.1002 12.8838 19.8804C11.0096 20.6605 9.76239 21.9468 10.0981 22.7533C10.4338 23.5598 12.2253 23.5812 14.0995 22.801Z" fill="#B1B1B1"/>
<path d="M6.33604 30.404C2.98162 30.2986 1.11358 26.8537 1.39982 23.6349C1.4077 23.5509 1.43663 23.4702 1.48394 23.4003C1.53124 23.3305 1.59538 23.2736 1.67045 23.2351C1.74552 23.1966 1.82909 23.1776 1.91343 23.1799C1.99778 23.1822 2.08019 23.2057 2.15306 23.2482C4.69063 24.7346 6.25403 26.919 6.84323 29.8014C6.85841 29.8757 6.85661 29.9524 6.83794 30.0258C6.81928 30.0992 6.78424 30.1675 6.73545 30.2254C6.68666 30.2834 6.62539 30.3296 6.55622 30.3605C6.48705 30.3914 6.41178 30.4063 6.33604 30.404Z" fill="#B1B1B1"/>
<path d="M14.2156 28.2151C13.0272 29.581 11.4922 30.3075 9.61081 30.3945C9.53232 30.3975 9.45419 30.3823 9.38259 30.35C9.31099 30.3177 9.24787 30.2692 9.19821 30.2083C9.14855 30.1475 9.1137 30.0759 9.09642 29.9993C9.07913 29.9227 9.07988 29.8431 9.0986 29.7668C9.67776 27.5071 11.1876 26.1897 13.6281 25.8148C16.867 25.3177 14.9186 27.4066 14.2156 28.2151Z" fill="#B1B1B1"/>
<path d="M11.081 33.4931C9.65875 34.9104 9.00725 36.5626 9.62586 37.1834C10.2445 37.8042 11.8989 37.1584 13.3212 35.7411C14.7435 34.3238 15.395 32.6716 14.7764 32.0508C14.1578 31.43 12.5033 32.0758 11.081 33.4931Z" fill="#B1B1B1"/>
<path d="M0.842315 32.4727C0.856409 32.4085 0.883235 32.3477 0.921239 32.2939C0.959243 32.2401 1.00767 32.1944 1.06372 32.1594C1.11976 32.1243 1.18231 32.1007 1.24775 32.0898C1.31318 32.079 1.38019 32.0811 1.44491 32.0961C4.4043 32.789 6.30246 34.632 7.1394 37.6248C7.16211 37.7055 7.16426 37.7907 7.14564 37.8724C7.12702 37.9541 7.08824 38.0299 7.03282 38.0928C6.9774 38.1557 6.90711 38.2038 6.82836 38.2326C6.74962 38.2613 6.66492 38.2699 6.582 38.2576C3.5523 37.8023 1.65079 36.2841 0.877467 33.703C0.756948 33.3012 0.745231 32.8912 0.842315 32.4727Z" fill="#B1B1B1"/>
<path d="M12.1327 40.2439C11.0499 41.8986 10.7892 43.6437 11.5504 44.1418C12.3116 44.6399 13.8064 43.7023 14.8891 42.0477C15.9719 40.3931 16.2326 38.648 15.4714 38.1499C14.7102 37.6518 13.2154 38.5893 12.1327 40.2439Z" fill="#B1B1B1"/>
<path d="M4.16753 44.7357C2.93891 43.7616 2.18567 42.62 1.90781 41.311C1.8916 41.2368 1.8928 41.1598 1.91133 41.086C1.92985 41.0122 1.9652 40.9436 2.01467 40.8854C2.06413 40.8272 2.12639 40.781 2.19665 40.7503C2.26692 40.7197 2.34333 40.7053 2.42001 40.7084C5.44636 40.8356 7.64247 42.2367 9.00835 44.9115C9.04143 44.9757 9.05997 45.0465 9.06266 45.1188C9.06536 45.191 9.05214 45.2632 9.02394 45.3301C8.99574 45.397 8.95323 45.4571 8.89937 45.5062C8.84551 45.5554 8.78159 45.5923 8.71207 45.6145C7.07838 46.1401 5.56353 45.8472 4.16753 44.7357Z" fill="#B1B1B1"/>
<path d="M17.1229 48.743C16.5555 49.682 15.8675 50.8822 14.7477 50.8621C14.6341 50.8608 14.5243 50.8202 14.4366 50.7471C14.3489 50.674 14.2885 50.5728 14.2656 50.4604C13.6262 47.3905 14.6054 45.2178 17.2033 43.9423C17.2726 43.9086 17.3487 43.8912 17.4258 43.8916C17.5029 43.892 17.5788 43.9101 17.6478 43.9446C17.7167 43.9791 17.7768 44.029 17.8234 44.0904C17.87 44.1518 17.9017 44.2232 17.9163 44.2989C18.2176 45.8823 17.9531 47.3637 17.1229 48.743Z" fill="#B1B1B1"/>
<path d="M9.18863 53.1166C7.12308 52.8321 5.60991 51.719 4.64911 49.7773C4.61427 49.7064 4.59666 49.6282 4.5977 49.5492C4.59874 49.4702 4.61841 49.3926 4.65511 49.3226C4.69181 49.2526 4.7445 49.1923 4.8089 49.1466C4.87329 49.1008 4.94759 49.0708 5.02573 49.0592C8.12908 48.5939 10.5545 49.5547 12.302 51.9416C12.3459 52.002 12.3757 52.0715 12.3894 52.1449C12.403 52.2183 12.4001 52.2939 12.3809 52.366C12.3616 52.4382 12.3265 52.5051 12.2782 52.562C12.2298 52.6189 12.1693 52.6643 12.1012 52.6948C11.1671 53.1166 10.1963 53.2572 9.18863 53.1166Z" fill="#B1B1B1"/>
<path d="M18.7252 56.1806C18.6589 56.1569 18.5983 56.1202 18.5473 56.0726C18.4963 56.0251 18.456 55.9678 18.429 55.9044C17.7594 54.3075 17.8331 52.714 18.6499 51.1239C19.0583 50.3304 19.5823 49.768 20.2217 49.4366C20.288 49.4023 20.3612 49.383 20.4358 49.3802C20.5104 49.3775 20.5846 49.3913 20.6529 49.4206C20.7212 49.45 20.782 49.4941 20.8307 49.5499C20.8795 49.6056 20.915 49.6716 20.9347 49.7429C21.5474 51.9022 21.2745 53.946 20.1162 55.8743C19.8517 56.3162 19.3881 56.4183 18.7252 56.1806Z" fill="#B1B1B1"/>
<path d="M14.4611 60.0217H12.7036C10.6983 59.4224 9.42447 58.5068 8.88214 57.2749C8.85355 57.2097 8.83914 57.1392 8.83987 57.068C8.8406 56.9969 8.85644 56.9267 8.88636 56.8621C8.91627 56.7975 8.95957 56.74 9.01339 56.6934C9.0672 56.6469 9.1303 56.6123 9.1985 56.5919C12.1646 55.7014 14.7641 56.217 16.997 58.1386C17.0516 58.1854 17.0955 58.2433 17.1258 58.3085C17.1561 58.3737 17.172 58.4447 17.1724 58.5166C17.1729 58.5885 17.1579 58.6596 17.1286 58.7252C17.0992 58.7908 17.056 58.8493 17.0021 58.8968C16.2823 59.5262 15.4353 59.9012 14.4611 60.0217Z" fill="#B1B1B1"/>
<g clip-path="url(#clip0_4878_17465)">
<g clip-path="url(#clip1_4878_17465)">
<path d="M33.6205 22.4992L33.2145 22.4481C33.1869 22.4445 33.1606 22.4339 33.1381 22.4171C33.1157 22.4004 33.0978 22.3781 33.0863 22.3524L33.0649 22.3063C33.0599 22.2956 33.0572 22.2839 33.057 22.272C33.0568 22.2602 33.0591 22.2484 33.0638 22.2375C33.0684 22.2266 33.0753 22.2168 33.084 22.2088C33.0927 22.2008 33.103 22.1947 33.1142 22.1909C33.6008 22.0283 34.0989 21.9261 34.6085 21.8843C34.631 21.8825 34.6537 21.8854 34.675 21.8927C34.6964 21.9001 34.7161 21.9118 34.7327 21.9271C34.7494 21.9424 34.7627 21.961 34.7719 21.9817C34.781 22.0025 34.7859 22.0248 34.786 22.0475C34.7992 24.5514 34.7203 27.0684 34.8682 29.559C34.871 29.6012 34.8576 29.6429 34.8307 29.6754C34.8038 29.7079 34.7654 29.7288 34.7235 29.7338L34.0693 29.8063C34.0309 29.8109 33.9921 29.8017 33.9599 29.7803C33.9276 29.7588 33.9041 29.7265 33.8934 29.6893L33.8392 29.5013C33.8327 29.4793 33.8218 29.4589 33.8071 29.4414C33.7924 29.4238 33.7742 29.4096 33.7538 29.3995C33.7334 29.3894 33.7111 29.3837 33.6885 29.3828C33.6658 29.3819 33.6432 29.3858 33.6222 29.3942C32.9592 29.6535 32.432 29.8008 32.0408 29.836C30.9345 29.9349 30.2934 28.5618 30.3296 27.6552C30.3756 26.4585 31.2025 25.6046 32.3762 25.4035C32.7762 25.3343 33.1822 25.3112 33.5942 25.3343C33.6166 25.3357 33.6389 25.3324 33.6599 25.3247C33.6809 25.317 33.7001 25.3051 33.7163 25.2896C33.7325 25.2741 33.7454 25.2555 33.7541 25.2348C33.7628 25.2141 33.7671 25.1919 33.7668 25.1695L33.7652 22.6623C33.7647 22.6222 33.7498 22.5836 33.7233 22.5536C33.6967 22.5237 33.6602 22.5043 33.6205 22.4992ZM33.6748 26.1008C31.4622 24.9931 30.7948 27.4228 31.8403 28.8387C32.0693 29.1486 32.329 29.2706 32.6194 29.2046L33.6386 28.9755C33.675 28.967 33.7074 28.9464 33.7307 28.9171C33.754 28.8878 33.7667 28.8515 33.7668 28.814V26.2475C33.7668 26.2172 33.7581 26.1874 33.7418 26.1615C33.7256 26.1356 33.7024 26.1145 33.6748 26.1008Z" fill="#C6323D"/>
<path d="M77.3584 26.4801C77.0592 25.7417 76.04 25.923 75.5173 26.2411C75.4932 26.2562 75.4732 26.2771 75.4594 26.3019C75.4456 26.3267 75.4384 26.3546 75.4384 26.3829V29.5559C75.4385 29.5965 75.4235 29.6357 75.3961 29.6659C75.3688 29.696 75.3311 29.715 75.2904 29.7191L74.5902 29.7917C74.5673 29.7942 74.5442 29.7919 74.5223 29.7848C74.5004 29.7778 74.4803 29.7662 74.4632 29.7508C74.4461 29.7354 74.4325 29.7165 74.4232 29.6954C74.4139 29.6743 74.4092 29.6515 74.4093 29.6285C74.4203 27.379 74.4154 25.1323 74.3945 22.8884C74.3913 22.5867 74.2022 22.4103 73.9063 22.4565C73.8648 22.4629 73.8225 22.4531 73.788 22.4292C73.7534 22.4053 73.7293 22.3691 73.7206 22.3279L73.7074 22.2686C73.7045 22.2547 73.7043 22.2404 73.7069 22.2265C73.7094 22.2125 73.7147 22.1993 73.7223 22.1875C73.73 22.1757 73.7399 22.1655 73.7514 22.1577C73.763 22.1498 73.7759 22.1444 73.7896 22.1417L75.2428 21.8565C75.2665 21.8519 75.291 21.8526 75.3144 21.8587C75.3379 21.8648 75.3597 21.876 75.3784 21.8916C75.3971 21.9072 75.4121 21.9267 75.4225 21.9489C75.4329 21.971 75.4383 21.9952 75.4384 22.0197V25.5554C75.4384 25.5814 75.4446 25.607 75.4564 25.6302C75.4682 25.6534 75.4853 25.6734 75.5063 25.6887C75.5273 25.704 75.5516 25.7141 75.5772 25.7181C75.6028 25.7221 75.6291 25.72 75.6537 25.712C76.2707 25.5098 76.7047 25.3911 76.9556 25.3559C78.394 25.1581 78.5206 26.0713 78.5222 27.2499C78.5222 28.0158 78.52 28.7818 78.5156 29.5477C78.5152 29.5871 78.5005 29.6251 78.4743 29.6548C78.448 29.6844 78.412 29.7037 78.3726 29.7092L77.6214 29.8147C77.5973 29.8182 77.5726 29.8162 77.5493 29.809C77.5261 29.8017 77.5047 29.7894 77.4867 29.7728C77.4688 29.7562 77.4547 29.7359 77.4456 29.7132C77.4365 29.6905 77.4325 29.6661 77.434 29.6417C77.4899 28.773 77.6641 27.2351 77.3584 26.4801Z" fill="#C6323D"/>
<path d="M22.01 23.3247C21.7152 23.3917 21.5941 23.312 21.6467 23.0857C21.6543 23.0528 21.672 23.0232 21.6973 23.0007C21.7227 22.9783 21.7544 22.9642 21.7881 22.9604L23.2675 22.7873C23.2906 22.7845 23.3139 22.7867 23.3361 22.7937C23.3582 22.8007 23.3787 22.8124 23.3961 22.8279C23.4135 22.8435 23.4274 22.8626 23.437 22.884C23.4466 22.9054 23.4516 22.9287 23.4516 22.9521V29.5324C23.4518 29.5734 23.4366 29.613 23.4089 29.6435C23.3813 29.6739 23.3432 29.6931 23.3021 29.6972L22.564 29.7631C22.5412 29.7652 22.5182 29.7625 22.4965 29.7552C22.4748 29.748 22.4549 29.7363 22.438 29.7209C22.4211 29.7056 22.4077 29.6869 22.3985 29.666C22.3894 29.6452 22.3847 29.6227 22.3848 29.5999C22.3837 27.6846 22.3826 25.773 22.3815 23.8653C22.3815 23.6521 22.3042 23.4824 22.1497 23.356C22.1303 23.3405 22.1076 23.3297 22.0834 23.3243C22.0592 23.3189 22.0341 23.319 22.01 23.3247Z" fill="#C6323D"/>
<path d="M62.7398 23.5963V29.5386C62.7398 29.5747 62.7281 29.6098 62.7064 29.6386C62.6848 29.6675 62.6544 29.6885 62.6198 29.6985C62.3458 29.7732 62.0675 29.8029 61.7847 29.7875C61.7429 29.785 61.7035 29.7665 61.6748 29.7359C61.6461 29.7052 61.6301 29.6647 61.6302 29.6227V23.6128C61.6302 23.591 61.6259 23.5694 61.6175 23.5493C61.6092 23.5292 61.5969 23.511 61.5815 23.4956C61.566 23.4803 61.5477 23.4682 61.5276 23.46C61.5075 23.4518 61.4859 23.4477 61.4642 23.4479L60.2214 23.4628C59.9321 23.4661 59.7458 23.5886 59.6625 23.8304L59.434 24.4913C59.4223 24.5251 59.4001 24.5541 59.3708 24.574C59.3414 24.5939 59.3065 24.6037 59.2713 24.6018L59.2138 24.6001C59.1998 24.5995 59.1861 24.5961 59.1735 24.5901C59.1608 24.5841 59.1495 24.5756 59.1402 24.5652C59.1308 24.5548 59.1237 24.5426 59.1191 24.5293C59.1145 24.5161 59.1126 24.502 59.1135 24.488L59.2006 23.11C59.2031 23.0683 59.2215 23.0291 59.252 23.0003C59.2825 22.9716 59.3229 22.9554 59.365 22.9551H65.0362C65.0787 22.955 65.1196 22.9713 65.1502 23.0005C65.1809 23.0297 65.1989 23.0695 65.2006 23.1117L65.2598 24.4666C65.2607 24.4851 65.2578 24.5035 65.2513 24.5207C65.2448 24.538 65.2348 24.5536 65.2219 24.5667C65.209 24.5797 65.1936 24.5899 65.1766 24.5965C65.1597 24.6031 65.1415 24.606 65.1234 24.6051L65.0625 24.6018C65.0244 24.6005 64.9879 24.5855 64.9596 24.5596C64.9313 24.5336 64.913 24.4983 64.908 24.46C64.8587 24.1007 64.7091 23.7897 64.4592 23.5271C64.4288 23.4954 64.3874 23.4771 64.3442 23.476L62.9091 23.4315C62.8871 23.4308 62.8652 23.4346 62.8447 23.4426C62.8242 23.4505 62.8055 23.4626 62.7897 23.4779C62.7739 23.4933 62.7613 23.5117 62.7528 23.532C62.7442 23.5524 62.7398 23.5742 62.7398 23.5963Z" fill="#C6323D"/>
<path d="M36.9275 24.1406C37.2607 24.1406 37.5308 23.8697 37.5308 23.5356C37.5308 23.2015 37.2607 22.9307 36.9275 22.9307C36.5943 22.9307 36.3242 23.2015 36.3242 23.5356C36.3242 23.8697 36.5943 24.1406 36.9275 24.1406Z" fill="#C6323D"/>
<path d="M47.7527 26.9085L47.7313 29.5657C47.7307 29.6063 47.7154 29.6453 47.6881 29.6754C47.6609 29.7054 47.6236 29.7245 47.5833 29.7289L46.8502 29.8064C46.8275 29.8089 46.8045 29.8066 46.7828 29.7995C46.761 29.7925 46.741 29.7809 46.7239 29.7655C46.7069 29.7501 46.6932 29.7313 46.6838 29.7102C46.6744 29.6891 46.6695 29.6663 46.6694 29.6432C46.6705 27.8091 46.6699 25.9553 46.6677 24.0816C46.6677 23.7042 46.5724 23.4157 46.1318 23.4899C46.1029 23.4949 46.0731 23.492 46.0457 23.4816C46.0182 23.4711 45.994 23.4535 45.9757 23.4305C45.4644 22.7926 50.2529 22.9624 50.5521 22.9789C50.5926 22.9809 50.631 22.998 50.6598 23.0269C50.6886 23.0558 50.7059 23.0945 50.7083 23.1355L50.7674 24.4146C50.7682 24.4347 50.7646 24.4547 50.7567 24.4732C50.7488 24.4917 50.7369 24.5081 50.7219 24.5212C50.7068 24.5344 50.6891 24.5439 50.67 24.5492C50.6508 24.5544 50.6307 24.5552 50.6113 24.5514L50.5406 24.5382C50.5051 24.5312 50.473 24.5127 50.4489 24.4856C50.4249 24.4585 50.4103 24.4243 50.4074 24.3882C50.3121 23.0976 48.7603 23.4569 47.9105 23.4503C47.8887 23.4501 47.8672 23.4542 47.847 23.4624C47.8269 23.4706 47.8086 23.4827 47.7932 23.498C47.7777 23.5133 47.7655 23.5316 47.7571 23.5517C47.7487 23.5718 47.7444 23.5934 47.7444 23.6151L47.7428 26.1107C47.7427 26.1333 47.7473 26.1557 47.7564 26.1764C47.7655 26.1971 47.7787 26.2157 47.7954 26.2311C47.8121 26.2464 47.8318 26.2581 47.8533 26.2655C47.8748 26.2729 47.8976 26.2758 47.9203 26.2739C48.4617 26.2333 49.0124 26.1981 49.5724 26.1684C49.9636 26.1487 50.3154 26.1618 50.1116 26.6943C50.0996 26.726 50.078 26.7532 50.0497 26.7721C50.0214 26.791 49.9879 26.8007 49.9537 26.7998L47.9203 26.7454C47.8985 26.7447 47.8768 26.7484 47.8565 26.7563C47.8362 26.7642 47.8177 26.7762 47.802 26.7914C47.7864 26.8066 47.774 26.8248 47.7655 26.8449C47.757 26.8651 47.7526 26.8867 47.7527 26.9085Z" fill="#C6323D"/>
<path d="M52.2807 24.1429C52.6148 24.1429 52.8856 23.8713 52.8856 23.5363C52.8856 23.2013 52.6148 22.9297 52.2807 22.9297C51.9466 22.9297 51.6758 23.2013 51.6758 23.5363C51.6758 23.8713 51.9466 24.1429 52.2807 24.1429Z" fill="#C6323D"/>
<path d="M24.8896 25.9377C24.8271 25.9064 24.26 25.9855 24.4869 25.6872C24.5112 25.6553 24.5457 25.6336 24.5839 25.6262L25.9466 25.3328C25.9875 25.324 26.0302 25.331 26.0659 25.3525C26.1017 25.3739 26.1278 25.4081 26.1389 25.4481L26.185 25.6064C26.191 25.6275 26.2012 25.6473 26.2149 25.6644C26.2286 25.6815 26.2457 25.6958 26.265 25.7062C26.2843 25.7166 26.3054 25.7231 26.3273 25.7252C26.3491 25.7273 26.3711 25.725 26.3921 25.7185C26.9356 25.5481 27.3482 25.4333 27.6299 25.374C29.0041 25.0904 29.2918 25.9459 29.2885 27.1196C29.2874 27.9339 29.2874 28.747 29.2885 29.5591C29.2884 29.5996 29.2734 29.6386 29.2464 29.6687C29.2194 29.6988 29.1823 29.7179 29.1422 29.7223L28.3778 29.8097C28.3538 29.8124 28.3294 29.8098 28.3065 29.802C28.2835 29.7942 28.2626 29.7814 28.2452 29.7646C28.2277 29.7477 28.2142 29.7272 28.2056 29.7045C28.197 29.6818 28.1935 29.6575 28.1954 29.6333C28.2874 28.3641 28.8956 24.9817 26.3 26.2146C26.2719 26.2285 26.2482 26.2499 26.2316 26.2764C26.2151 26.3029 26.2063 26.3335 26.2063 26.3646V29.5591C26.2065 29.5997 26.1914 29.6389 26.1641 29.6691C26.1367 29.6992 26.099 29.7182 26.0584 29.7223L25.3597 29.7915C25.337 29.7939 25.3141 29.7914 25.2924 29.7842C25.2707 29.777 25.2508 29.7654 25.2339 29.75C25.217 29.7346 25.2035 29.7158 25.1943 29.6949C25.1851 29.6739 25.1805 29.6513 25.1806 29.6284L25.1756 26.419C25.1756 26.1948 25.0803 26.0344 24.8896 25.9377Z" fill="#C6323D"/>
<path d="M41.114 29.4631C40.6 29.6697 40.1742 29.7917 39.8367 29.829C38.4526 29.9774 37.9693 27.9615 39.4718 27.4917C39.9978 27.3268 40.5419 27.2455 41.1041 27.2477C41.1446 27.2477 41.1837 27.2329 41.214 27.2062C41.2443 27.1794 41.2637 27.1426 41.2685 27.1027C41.4542 25.5499 40.0669 25.8779 39.1381 26.1499C39.1168 26.1563 39.0945 26.1582 39.0725 26.1556C39.0504 26.1529 39.0291 26.1457 39.0099 26.1345C38.9907 26.1232 38.9739 26.1081 38.9606 26.09C38.9473 26.072 38.9378 26.0514 38.9326 26.0296L38.9129 25.9488C38.9037 25.9115 38.9083 25.872 38.9257 25.8373C38.9432 25.8026 38.9724 25.775 39.0082 25.7593C39.8762 25.3851 41.6186 24.8972 42.1447 25.9241C42.5129 26.6444 42.314 28.6637 42.3551 29.5505C42.3569 29.5898 42.345 29.6285 42.3215 29.6595C42.298 29.6906 42.2645 29.7121 42.2269 29.7203C42.0164 29.7648 41.6186 29.8703 41.451 29.7203C41.3995 29.6741 41.3578 29.6164 41.326 29.5472C41.3085 29.5086 41.2767 29.4784 41.2372 29.4627C41.1977 29.4471 41.1536 29.4472 41.114 29.4631ZM39.7644 29.0296C40.2422 29.2351 40.7041 29.2197 41.1501 28.9834C41.1751 28.9705 41.1963 28.951 41.2116 28.927C41.2269 28.903 41.2358 28.8753 41.2373 28.8466L41.2882 27.8428C41.2893 27.8207 41.286 27.7987 41.2784 27.7779C41.2709 27.7572 41.2592 27.7382 41.2442 27.722C41.2292 27.7059 41.2111 27.6929 41.191 27.684C41.1709 27.675 41.1491 27.6701 41.1271 27.6697C40.8499 27.6631 40.5732 27.6812 40.297 27.7241C39.6504 27.823 39.4422 28.2246 39.6723 28.929C39.6796 28.9513 39.6916 28.9718 39.7075 28.9892C39.7233 29.0065 39.7427 29.0203 39.7644 29.0296Z" fill="#C6323D"/>
<path d="M55.2598 26.3396L55.2582 29.5556C55.2581 29.596 55.2433 29.635 55.2166 29.6651C55.1899 29.6952 55.1532 29.7143 55.1135 29.7188L54.3754 29.8028C54.3524 29.8056 54.329 29.8035 54.3069 29.7966C54.2847 29.7896 54.2642 29.7781 54.2469 29.7627C54.2295 29.7473 54.2155 29.7283 54.2059 29.7071C54.1964 29.6859 54.1914 29.6629 54.1913 29.6396V26.3776C54.1902 25.9962 54.0396 25.8451 53.7393 25.9243C53.5935 25.9616 53.5119 25.9243 53.4943 25.8122C53.4875 25.7703 53.497 25.7274 53.5209 25.6924C53.5448 25.6574 53.5812 25.633 53.6226 25.6243L55.028 25.3276C55.0558 25.3219 55.0845 25.3235 55.1115 25.3322C55.1384 25.3409 55.1627 25.3565 55.1819 25.3774C55.2011 25.3983 55.2145 25.4238 55.221 25.4515C55.2274 25.4791 55.2267 25.508 55.2187 25.5352C55.1563 25.7545 55.3026 25.7874 55.4686 25.7248C56.6554 25.2682 58.3075 24.8874 58.342 26.6693C58.3607 27.6352 58.3448 28.6028 58.2944 29.5721C58.2925 29.6119 58.2764 29.6497 58.2489 29.6785C58.2213 29.7073 58.1844 29.7251 58.1448 29.7287L57.4544 29.7896C57.4318 29.7917 57.409 29.789 57.3875 29.7817C57.366 29.7745 57.3463 29.7628 57.3296 29.7474C57.3129 29.7321 57.2995 29.7134 57.2905 29.6925C57.2814 29.6717 57.2767 29.6492 57.2768 29.6265C57.2735 28.7188 57.2724 27.8155 57.2735 26.9166C57.2735 25.7594 56.1557 25.8896 55.3667 26.1863C55.3353 26.1978 55.3083 26.2187 55.2892 26.2461C55.2701 26.2735 55.2598 26.3062 55.2598 26.3396Z" fill="#C6323D"/>
<path d="M69.7166 28.8652C68.5774 26.8657 70.5598 25.0163 72.567 25.3839C73.4267 25.5421 73.6552 26.7635 72.4749 26.7421C72.4316 26.7412 72.3904 26.7233 72.3602 26.6921C72.3301 26.6609 72.3134 26.6191 72.3138 26.5756C72.3188 26.1009 72.1675 25.9064 71.6875 25.8701C69.8612 25.7333 70.0042 29.3993 72.4782 29.0861C72.7357 29.0542 72.9922 29.0168 73.2475 28.974C73.2789 28.9691 73.3109 28.9732 73.3397 28.9857C73.3686 28.9983 73.393 29.0188 73.4103 29.0449C73.4903 29.1646 73.4683 29.2509 73.3445 29.3037C72.0771 29.8427 70.522 30.2778 69.7166 28.8652Z" fill="#C6323D"/>
<path d="M36.1033 25.9278C35.9279 25.9772 35.8085 25.9404 35.7449 25.8174C35.7356 25.7991 35.7307 25.779 35.7305 25.7586C35.7303 25.7381 35.7348 25.7179 35.7437 25.6995C35.7527 25.6811 35.7657 25.6651 35.7819 25.6526C35.7981 25.6402 35.817 25.6317 35.837 25.6278L37.2688 25.3344C37.2926 25.3295 37.3173 25.33 37.341 25.3358C37.3647 25.3417 37.3867 25.3528 37.4056 25.3682C37.4245 25.3837 37.4397 25.4032 37.4502 25.4253C37.4606 25.4473 37.466 25.4715 37.466 25.4959V29.5641C37.4662 29.6053 37.4509 29.6451 37.4232 29.6757C37.3955 29.7062 37.3574 29.7252 37.3164 29.7289L36.6178 29.7899C36.5952 29.7919 36.5725 29.7893 36.551 29.782C36.5295 29.7747 36.5097 29.763 36.493 29.7477C36.4763 29.7323 36.463 29.7136 36.4539 29.6928C36.4448 29.6719 36.4402 29.6494 36.4403 29.6267L36.4353 26.2641C36.4353 25.9783 36.3246 25.8663 36.1033 25.9278Z" fill="#C6323D"/>
<path d="M51.513 25.9192C51.2939 25.9852 51.1552 25.9467 51.0971 25.8039C51.09 25.7859 51.087 25.7665 51.0881 25.7472C51.0893 25.7279 51.0947 25.709 51.104 25.692C51.1132 25.675 51.1261 25.6603 51.1417 25.6489C51.1573 25.6374 51.1752 25.6296 51.1941 25.6258L52.6374 25.3324C52.6613 25.3275 52.686 25.328 52.7097 25.3339C52.7333 25.3397 52.7554 25.3508 52.7743 25.3663C52.7932 25.3817 52.8084 25.4012 52.8188 25.4233C52.8293 25.4454 52.8347 25.4695 52.8347 25.494V29.5588C52.8345 29.6 52.8193 29.6396 52.792 29.67C52.7647 29.7005 52.7272 29.7196 52.6867 29.7236L51.9881 29.7945C51.9652 29.7968 51.942 29.7943 51.9201 29.787C51.8983 29.7798 51.8781 29.768 51.8611 29.7525C51.844 29.7369 51.8304 29.718 51.8212 29.6968C51.8119 29.6757 51.8072 29.6528 51.8073 29.6297L51.8056 26.3775C51.8056 26.0127 51.7081 25.8599 51.513 25.9192Z" fill="#C6323D"/>
<path d="M67.2319 29.7815C64.296 30.3502 63.9393 25.865 66.7733 25.3656C68.0193 25.1463 68.981 25.8287 68.5963 27.2068C68.5871 27.2399 68.5679 27.2694 68.5414 27.2909C68.5148 27.3125 68.4823 27.3252 68.4484 27.3271L66.0434 27.4606C66.0214 27.4619 65.9998 27.4675 65.98 27.4772C65.9602 27.4869 65.9426 27.5005 65.9281 27.5171C65.9137 27.5337 65.9028 27.553 65.8961 27.5739C65.8893 27.5948 65.8869 27.6168 65.8889 27.6386C65.9185 28.009 66.0462 28.321 66.2719 28.5749C66.8522 29.2309 67.8385 29.1947 68.6308 28.9425C68.8051 28.8875 68.896 28.9419 68.9037 29.1057C68.9055 29.1384 68.8976 29.1709 68.8809 29.1991C68.8642 29.2273 68.8395 29.2499 68.81 29.2639C68.3059 29.5035 67.7799 29.676 67.2319 29.7815ZM66.507 25.8765C66.1147 26.1502 65.901 26.4963 65.8659 26.915C65.8639 26.9387 65.8671 26.9626 65.8752 26.985C65.8834 27.0074 65.8962 27.0277 65.9129 27.0446C65.9296 27.0616 65.9498 27.0747 65.9721 27.083C65.9943 27.0914 66.0181 27.0948 66.0418 27.093L67.4818 26.9892C67.5193 26.9862 67.5546 26.9706 67.5821 26.9448C67.6096 26.9191 67.6275 26.8847 67.633 26.8474C67.7316 26.176 67.3875 25.8425 66.6007 25.8469C66.5665 25.8468 66.5337 25.8572 66.507 25.8765Z" fill="#C6323D"/>
<path d="M23.7058 34.236L25.6932 34.1404C25.715 34.1393 25.7367 34.1425 25.7572 34.1499C25.7776 34.1572 25.7964 34.1686 25.8125 34.1833C25.8285 34.198 25.8415 34.2158 25.8507 34.2356C25.8598 34.2554 25.865 34.2768 25.8658 34.2986L25.8773 34.62C25.8783 34.6428 25.8745 34.6655 25.8662 34.6867C25.858 34.7079 25.8454 34.7272 25.8293 34.7433C25.8133 34.7594 25.794 34.772 25.7729 34.7803C25.7517 34.7886 25.7291 34.7924 25.7064 34.7915L23.7042 34.7123C23.6821 34.7114 23.66 34.7151 23.6393 34.7229C23.6186 34.7308 23.5996 34.7428 23.5837 34.7582C23.5677 34.7736 23.555 34.7921 23.5463 34.8125C23.5377 34.833 23.5332 34.855 23.5332 34.8772V37.5442C23.5333 37.5863 23.5176 37.6268 23.4891 37.6574C23.4607 37.688 23.4218 37.7065 23.3804 37.709L22.6061 37.7601C22.5837 37.7617 22.5612 37.7587 22.54 37.7512C22.5189 37.7437 22.4994 37.732 22.483 37.7167C22.4665 37.7014 22.4533 37.6829 22.4442 37.6623C22.4352 37.6417 22.4304 37.6195 22.4302 37.597C22.4204 35.7618 22.4198 33.9327 22.4286 32.1096C22.4302 31.6761 22.3299 31.3942 21.8434 31.4404C21.8211 31.4424 21.7987 31.4398 21.7774 31.4329C21.7562 31.4259 21.7366 31.4147 21.7198 31.3999C21.703 31.3851 21.6895 31.367 21.6799 31.3468C21.6703 31.3265 21.665 31.3045 21.6642 31.2821C21.6609 31.1788 21.7217 31.1178 21.8467 31.0991C23.0456 30.9233 24.4527 30.8821 26.068 30.9755C26.1013 30.9766 26.1344 30.968 26.1634 30.9508C26.6039 30.6788 26.5299 32.1805 26.5382 32.375C26.5389 32.3934 26.5357 32.4118 26.5289 32.429C26.5221 32.4461 26.5118 32.4616 26.4986 32.4745C26.4855 32.4874 26.4697 32.4974 26.4525 32.5038C26.4352 32.5102 26.4168 32.513 26.3984 32.5118L26.3261 32.5068C26.2872 32.5047 26.2503 32.4886 26.2219 32.4614C26.1936 32.4342 26.1758 32.3978 26.1716 32.3585C26.0516 31.1255 24.5425 31.4173 23.6943 31.4305C23.6514 31.4309 23.6105 31.4485 23.5803 31.4793C23.5501 31.5102 23.5332 31.5519 23.5332 31.5953V34.0711C23.5332 34.0935 23.5377 34.1156 23.5465 34.1362C23.5553 34.1567 23.5681 34.1753 23.5842 34.1907C23.6004 34.2061 23.6195 34.2181 23.6404 34.2259C23.6613 34.2336 23.6836 34.2371 23.7058 34.236Z" fill="#C6323D"/>
<path d="M31.8411 35.7996C32.0165 36.0644 32.2543 36.1485 32.5545 36.0518C32.5787 36.0446 32.604 36.0428 32.6288 36.0465C32.6535 36.0502 32.677 36.0593 32.6976 36.0732C33.1282 36.3655 33.1452 36.6787 32.7485 37.0128C32.723 37.0353 32.6906 37.0486 32.6565 37.0507C32.1567 37.0946 31.9398 36.8567 32.0055 36.337C32.0086 36.3156 32.0073 36.2938 32.0017 36.2728C31.996 36.2519 31.9861 36.2322 31.9726 36.215C31.5606 35.6919 31.2537 35.8403 31.0521 36.66C31.0462 36.6841 31.0349 36.7064 31.0191 36.7255C31.0033 36.7445 30.9834 36.7598 30.9608 36.7701C30.9382 36.7804 30.9136 36.7854 30.8887 36.7849C30.8638 36.7844 30.8393 36.7784 30.817 36.7672L29.5414 36.1144C29.5069 36.097 29.4797 36.0679 29.4647 36.0323C29.4496 35.9967 29.4477 35.9569 29.4592 35.9199C29.685 35.1749 29.4745 35.0194 28.828 35.4534C28.7952 35.4747 28.7712 35.5075 28.7606 35.5457C28.6345 35.9908 28.3918 36.1282 28.0324 35.9578C27.3041 35.6117 28.0258 34.5963 28.6471 35.165C28.669 35.1849 28.6958 35.1985 28.7248 35.2043C28.7537 35.2101 28.7837 35.2079 28.8115 35.1979L29.3047 35.0249C29.3455 35.0102 29.379 34.9802 29.398 34.9414C29.4171 34.9026 29.4201 34.858 29.4066 34.8172C29.3156 34.5435 29.2822 34.2644 29.3063 33.9798C29.3095 33.9424 29.2998 33.905 29.2789 33.8738C29.258 33.8426 29.2271 33.8195 29.1913 33.8084L28.5847 33.6205C28.5605 33.6133 28.5351 33.6117 28.5104 33.6157C28.4856 33.6197 28.4621 33.6292 28.4417 33.6435C27.6937 34.1694 27.4373 32.7501 28.3611 32.999C28.3852 33.0058 28.4075 33.0178 28.4263 33.0344C28.4451 33.0509 28.4599 33.0715 28.4696 33.0946C28.6022 33.4133 28.8504 33.5831 29.2143 33.604C29.242 33.6055 29.2697 33.5999 29.2947 33.5878C29.3197 33.5757 29.3412 33.5575 29.3573 33.5348L29.8718 32.8111C29.8875 32.7889 29.8973 32.763 29.9005 32.736C29.9037 32.7089 29.9 32.6815 29.8899 32.6562C29.8176 32.4672 29.6987 32.3216 29.5332 32.2194C28.7014 31.7034 30.0724 31.2287 29.8258 32.0545C29.8191 32.0758 29.8169 32.0984 29.8194 32.1208C29.822 32.1432 29.8292 32.165 29.8406 32.1848L30.0461 32.5424C30.0672 32.5794 30.1017 32.6067 30.1425 32.6187C30.1832 32.6307 30.227 32.6264 30.2647 32.6067C30.5233 32.4716 30.8006 32.4161 31.0965 32.4403C31.4767 32.471 31.5348 32.3556 31.2707 32.0941C30.9365 31.7622 30.9639 31.4534 31.3529 31.1677C31.3855 31.1434 31.4268 31.1327 31.468 31.1381C32.0137 31.1974 32.1836 31.4749 31.9776 31.9705C31.9678 31.9936 31.9528 32.0142 31.9338 32.0308C31.9147 32.0474 31.892 32.0594 31.8674 32.0661C31.7173 32.1067 31.6055 32.1881 31.5321 32.31C31.5199 32.3305 31.5124 32.3534 31.5099 32.3771C31.5074 32.4008 31.5101 32.4248 31.5178 32.4473C31.5254 32.4699 31.5379 32.4905 31.5543 32.5078C31.5706 32.5251 31.5905 32.5386 31.6126 32.5474C31.9567 32.6848 32.2258 32.9128 32.4198 33.2315C32.4404 33.2653 32.4724 33.2905 32.5098 33.3027C32.5472 33.3148 32.5876 33.3129 32.6236 33.2974L33.3156 33.0023C33.3409 32.9918 33.3631 32.9749 33.3803 32.9533C33.3975 32.9318 33.4092 32.9061 33.4143 32.8787C33.4822 32.4886 33.7025 32.371 34.0751 32.526C34.0994 32.5361 34.1209 32.552 34.1378 32.5724C34.1547 32.5928 34.1665 32.617 34.1721 32.643C34.371 33.5381 33.6345 33.1161 33.2417 33.2479C33.0543 33.3095 32.8762 33.3974 32.7074 33.5117C32.6838 33.5278 32.6647 33.5498 32.652 33.5755C32.6394 33.6012 32.6335 33.6298 32.6351 33.6584L32.6762 34.3523C32.6777 34.3844 32.6889 34.4154 32.7082 34.4412C32.7275 34.4671 32.7542 34.4866 32.7847 34.4974C33.0532 34.5952 33.3184 34.5996 33.5803 34.5106C34.3924 34.2337 33.9682 35.5573 33.4324 34.8452C33.406 34.8103 33.367 34.7872 33.3239 34.7809L32.7074 34.6935C32.6714 34.6889 32.6349 34.6962 32.6034 34.7144C32.5719 34.7325 32.5473 34.7605 32.5332 34.7941C32.3973 35.1205 32.1825 35.3793 31.8888 35.5705C31.8706 35.5823 31.8549 35.5977 31.8426 35.6156C31.8304 35.6336 31.8218 35.6538 31.8174 35.6751C31.8129 35.6964 31.8127 35.7183 31.8168 35.7397C31.8209 35.7611 31.8292 35.7814 31.8411 35.7996ZM31.8017 31.6589C31.8017 31.6278 31.7955 31.5969 31.7837 31.5681C31.7718 31.5393 31.7543 31.5131 31.7323 31.4911C31.7104 31.4691 31.6843 31.4516 31.6555 31.4396C31.6268 31.4277 31.596 31.4216 31.565 31.4216C31.5339 31.4216 31.5031 31.4277 31.4744 31.4396C31.4457 31.4516 31.4196 31.4691 31.3976 31.4911C31.3756 31.5131 31.3582 31.5393 31.3463 31.5681C31.3344 31.5969 31.3282 31.6278 31.3282 31.6589C31.3282 31.7219 31.3532 31.7823 31.3976 31.8268C31.442 31.8713 31.5022 31.8963 31.565 31.8963C31.6277 31.8963 31.6879 31.8713 31.7323 31.8268C31.7767 31.7823 31.8017 31.7219 31.8017 31.6589ZM31.7507 35.2227C33.2647 33.9617 31.4811 32.0414 30.2055 33.0287C29.2554 33.7622 29.8291 34.9507 29.8767 35.8161C29.8783 35.8451 29.8875 35.8732 29.9034 35.8975C29.9192 35.9218 29.9412 35.9415 29.9671 35.9545L30.5902 36.2677C30.6244 36.285 30.6635 36.2899 30.7008 36.2815C30.738 36.273 30.771 36.2518 30.794 36.2216C31.08 35.8479 31.3989 35.515 31.7507 35.2227ZM28.4877 35.5078C28.4877 35.4769 28.4816 35.4462 28.4698 35.4176C28.458 35.389 28.4407 35.363 28.4188 35.3412C28.397 35.3193 28.3711 35.3019 28.3426 35.2901C28.3141 35.2782 28.2835 35.2721 28.2526 35.2721C28.2218 35.2721 28.1912 35.2782 28.1627 35.2901C28.1342 35.3019 28.1082 35.3193 28.0864 35.3412C28.0646 35.363 28.0473 35.389 28.0355 35.4176C28.0236 35.4462 28.0176 35.4769 28.0176 35.5078C28.0176 35.5703 28.0423 35.6303 28.0864 35.6745C28.1305 35.7187 28.1903 35.7435 28.2526 35.7435C28.315 35.7435 28.3748 35.7187 28.4188 35.6745C28.4629 35.6303 28.4877 35.5703 28.4877 35.5078ZM32.7452 36.5578C32.7452 36.4953 32.7205 36.4354 32.6764 36.3912C32.6323 36.347 32.5725 36.3221 32.5102 36.3221C32.4478 36.3221 32.388 36.347 32.3439 36.3912C32.2999 36.4354 32.2751 36.4953 32.2751 36.5578C32.2751 36.5888 32.2812 36.6194 32.293 36.648C32.3048 36.6766 32.3221 36.7026 32.3439 36.7245C32.3658 36.7464 32.3917 36.7638 32.4202 36.7756C32.4487 36.7875 32.4793 36.7935 32.5102 36.7935C32.541 36.7935 32.5716 36.7875 32.6001 36.7756C32.6286 36.7638 32.6546 36.7464 32.6764 36.7245C32.6982 36.7026 32.7155 36.6766 32.7273 36.648C32.7392 36.6194 32.7452 36.5888 32.7452 36.5578Z" fill="#C6323D"/>
<path d="M37.1085 33.6902C37.4307 33.5495 37.7638 33.4358 38.1079 33.349C39.0252 33.1198 39.4131 34.2012 38.6882 34.5391C38.5468 34.605 38.3956 34.6308 38.2345 34.6165C38.1989 34.6137 38.1652 34.5992 38.1385 34.5754C38.1118 34.5517 38.0936 34.5198 38.0865 34.4847L38.0224 34.1567C38.0154 34.1222 37.9978 34.0909 37.9721 34.0672C37.9464 34.0435 37.9139 34.0287 37.8794 34.0248C37.5496 33.9863 37.2455 34.0545 36.9671 34.2292C36.9434 34.2439 36.9239 34.2644 36.9104 34.289C36.8968 34.3135 36.8898 34.3411 36.8898 34.3693V37.5391C36.89 37.5803 36.8747 37.6202 36.847 37.6507C36.8193 37.6812 36.7812 37.7002 36.7402 37.7039L36.0515 37.7633C36.0289 37.7651 36.0061 37.7622 35.9847 37.7548C35.9632 37.7475 35.9435 37.7358 35.9267 37.7205C35.9099 37.7052 35.8964 37.6867 35.887 37.6659C35.8777 37.6452 35.8727 37.6228 35.8723 37.6001L35.8378 34.0709C35.8374 34.0453 35.8311 34.02 35.8193 33.9972C35.8075 33.9744 35.7905 33.9547 35.7697 33.9397C35.749 33.9246 35.725 33.9146 35.6997 33.9105C35.6744 33.9064 35.6485 33.9083 35.6241 33.916C35.4378 33.9742 35.297 33.9616 35.2016 33.8781C35.0328 33.7308 35.0586 33.6358 35.2789 33.5929L36.6728 33.3209C36.6949 33.3167 36.7177 33.3171 36.7396 33.322C36.7616 33.3269 36.7823 33.3364 36.8005 33.3496C36.8187 33.3629 36.8339 33.3798 36.8454 33.3993C36.8568 33.4187 36.8641 33.4403 36.8668 33.4627L36.88 33.56C36.8829 33.5853 36.8917 33.6096 36.9058 33.6308C36.9198 33.6521 36.9387 33.6698 36.9609 33.6824C36.9832 33.6951 37.0081 33.7024 37.0337 33.7037C37.0593 33.7051 37.0849 33.7004 37.1085 33.6902Z" fill="#C6323D"/>
<path d="M42.9234 37.395C42.6067 37.4862 42.2899 37.5741 41.9732 37.6587C39.4615 38.3279 39.9497 35.9757 39.9908 34.212C39.9918 34.1777 39.982 34.1437 39.9628 34.1147C39.7508 33.8049 39.5765 34.0158 39.3513 33.8922C38.8039 33.5939 40.8373 33.3235 40.8702 33.3186C40.8942 33.3157 40.9185 33.318 40.9415 33.3254C40.9645 33.3328 40.9855 33.3451 41.0032 33.3614C41.0209 33.3778 41.0348 33.3977 41.0439 33.4199C41.053 33.4421 41.0571 33.4661 41.056 33.49C41.0121 34.3329 40.9951 35.1757 41.005 36.0186C41.0215 37.2845 42.0965 37.39 42.9694 36.8856C42.9943 36.8716 43.0151 36.851 43.0295 36.8261C43.044 36.8012 43.0516 36.7728 43.0516 36.7439C43.0571 36.0054 43.0571 35.2691 43.0516 34.5351C43.0483 34.0812 42.8494 33.8735 42.4549 33.912C42.4264 33.9143 42.3979 33.9074 42.3736 33.8923C42.3493 33.8772 42.3306 33.8546 42.3201 33.8279C42.205 33.5312 43.6713 33.3565 43.885 33.3301C43.9079 33.3274 43.9311 33.3295 43.9532 33.3364C43.9752 33.3433 43.9956 33.3548 44.0129 33.3702C44.0303 33.3856 44.0443 33.4045 44.054 33.4257C44.0636 33.4469 44.0688 33.47 44.0691 33.4933L44.1102 37.5499C44.1107 37.592 44.0952 37.6327 44.0668 37.6636C44.0384 37.6946 43.9992 37.7134 43.9573 37.7164L43.336 37.7609C43.2991 37.7637 43.2624 37.7538 43.2316 37.7329C43.2009 37.7119 43.178 37.6812 43.1667 37.6455L43.1256 37.5071C43.1129 37.4654 43.0846 37.4304 43.0468 37.4094C43.0091 37.3885 42.9647 37.3833 42.9234 37.395Z" fill="#C6323D"/>
<path d="M46.9291 33.6845C47.2809 33.5823 47.631 33.4762 47.9795 33.3663C48.5855 33.174 49.0825 33.3004 49.4704 33.7455C49.4932 33.7722 49.524 33.7908 49.5584 33.7985C49.5927 33.8062 49.6288 33.8026 49.6611 33.7883C51.0074 33.1867 52.7072 32.735 52.7335 34.9389C52.7444 35.8125 52.7296 36.6839 52.6891 37.5531C52.6872 37.5935 52.6705 37.6317 52.6423 37.6606C52.6142 37.6895 52.5764 37.707 52.5362 37.7097L51.8639 37.7592C51.8413 37.7608 51.8187 37.7577 51.7974 37.7502C51.7761 37.7428 51.7566 37.731 51.7401 37.7157C51.7236 37.7004 51.7104 37.6818 51.7015 37.6612C51.6925 37.6406 51.6879 37.6184 51.688 37.596C51.6836 36.7246 51.677 35.857 51.6683 34.9933C51.6567 33.7768 50.6425 33.7998 49.8074 34.1938C49.7789 34.207 49.7548 34.2282 49.7379 34.2548C49.721 34.2814 49.712 34.3123 49.7121 34.3438V37.54C49.7122 37.5812 49.6968 37.6211 49.6688 37.6516C49.6408 37.6821 49.6023 37.7011 49.5609 37.7048L48.8737 37.7592C48.8512 37.761 48.8285 37.7582 48.8071 37.7509C48.7858 37.7436 48.7661 37.732 48.7494 37.7169C48.7328 37.7017 48.7195 37.6833 48.7103 37.6628C48.7011 37.6423 48.6963 37.6201 48.6962 37.5977C48.6765 36.2493 49.2732 32.9559 46.8025 34.2053C46.7752 34.2193 46.7523 34.2404 46.7364 34.2663C46.7204 34.2922 46.712 34.3219 46.7121 34.352V37.5449C46.7122 37.5864 46.6965 37.6265 46.6682 37.657C46.6398 37.6876 46.6009 37.7064 46.5592 37.7097L45.8639 37.7592C45.8413 37.7608 45.8187 37.7577 45.7974 37.7502C45.7761 37.7428 45.7566 37.731 45.7401 37.7157C45.7236 37.7004 45.7104 37.6818 45.7015 37.6612C45.6925 37.6406 45.6879 37.6184 45.688 37.596C45.6847 36.5663 45.6836 35.5405 45.6847 34.5185C45.6847 34.118 45.5778 33.8312 45.1176 33.9136C45.0841 33.9193 45.0497 33.9122 45.0216 33.8938C44.9935 33.8754 44.9737 33.8471 44.9663 33.8147C44.9411 33.7081 45.0041 33.6361 45.1554 33.5987C45.5236 33.5064 45.894 33.4169 46.2666 33.3301C46.5351 33.2663 46.6863 33.34 46.7203 33.5509C46.7241 33.5741 46.7327 33.5962 46.7455 33.6157C46.7584 33.6353 46.7752 33.6519 46.7949 33.6645C46.8146 33.6772 46.8367 33.6854 46.8599 33.6889C46.883 33.6923 46.9066 33.6908 46.9291 33.6845Z" fill="#C6323D"/>
<path d="M31.3083 34.182L31.8754 33.7155C31.8795 33.7116 31.8845 33.7088 31.8901 33.7077C31.8956 33.7065 31.9014 33.7069 31.9067 33.709L31.9494 33.7221C31.9516 33.7227 31.9531 33.7244 31.9538 33.7272C31.9546 33.73 31.9544 33.7339 31.9535 33.7384C31.9525 33.743 31.9508 33.7482 31.9484 33.7536C31.946 33.7591 31.943 33.7647 31.9395 33.7699L31.4579 34.5447C31.4462 34.5635 31.4309 34.5798 31.4127 34.5925C31.3946 34.6053 31.3741 34.6142 31.3525 34.6189C31.3309 34.6235 31.3085 34.6237 31.2868 34.6194C31.2651 34.6152 31.2444 34.6066 31.2261 34.5941L31.0552 34.4787C31.0268 34.4596 30.9932 34.4498 30.959 34.4506C30.9248 34.4515 30.8918 34.4631 30.8645 34.4837C30.7724 34.5529 30.2332 35.0309 30.2267 34.9188C30.2256 34.892 30.2331 34.8655 30.248 34.843L30.7001 34.1194C30.7115 34.1007 30.7267 34.0846 30.7445 34.0719C30.7624 34.0593 30.7827 34.0504 30.8042 34.0458C30.8257 34.0412 30.8479 34.0409 30.8696 34.0451C30.8912 34.0492 30.9118 34.0577 30.9302 34.0699L31.111 34.1919C31.1405 34.2116 31.1755 34.2212 31.211 34.2194C31.2465 34.2176 31.2805 34.2045 31.3083 34.182Z" fill="#C6323D"/>
<path d="M30.6644 36.9826L29.5705 36.4357C29.5381 36.4194 29.4986 36.4326 29.4824 36.4651L29.4576 36.5152C29.4414 36.5477 29.4546 36.5872 29.4871 36.6035L30.581 37.1504C30.6135 37.1666 30.6529 37.1534 30.6691 37.1209L30.694 37.0708C30.7102 37.0383 30.6969 36.9988 30.6644 36.9826Z" fill="#C6323D"/>
<path d="M30.4792 37.2835C30.6677 37.3846 30.6562 37.45 30.4447 37.4796C30.3592 37.4917 30.2934 37.461 30.2474 37.3873C30.2302 37.3604 30.2057 37.3392 30.1767 37.3263C30.1669 37.3214 28.9964 36.8104 29.4436 36.7989C29.6293 36.7939 30.2819 37.1763 30.4792 37.2835Z" fill="#C6323D"/>
<path d="M30.1102 37.4226C30.3284 37.5832 30.2078 37.6492 29.7483 37.6206C29.7237 37.619 29.6996 37.6118 29.678 37.5995C29.6564 37.5872 29.6377 37.5702 29.6233 37.5496C29.4127 37.2505 29.4719 37.1554 29.8009 37.2643C29.9128 37.3006 30.0159 37.3534 30.1102 37.4226Z" fill="#C6323D"/>
</g>
</g>
<path d="M86.1398 8.15859C86.1779 8.2269 86.2315 8.28536 86.2962 8.32931C86.3609 8.37326 86.435 8.40148 86.5126 8.41172C86.5901 8.42196 86.669 8.41395 86.7429 8.38831C86.8168 8.36267 86.8837 8.32012 86.9382 8.26405C88.9268 6.21189 89.2766 3.84337 87.9878 1.15849C87.2747 -0.317862 86.5968 -0.383142 85.954 0.962645C84.7656 3.44331 84.8275 5.84196 86.1398 8.15859Z" fill="#B1B1B1"/>
<path d="M93.0215 11.6384C92.4697 13.7873 91.2951 15.3427 90.3979 15.1123C89.5007 14.882 89.2207 12.9531 89.7724 10.8042C90.3242 8.65518 91.4988 7.09983 92.396 7.33019C93.2932 7.56055 93.5732 9.48939 93.0215 11.6384Z" fill="#B1B1B1"/>
<path d="M83.8241 10.4741C83.8918 10.4491 83.9534 10.4097 84.0046 10.3587C84.0558 10.3077 84.0954 10.2463 84.1206 10.1786C84.1459 10.1109 84.1563 10.0386 84.151 9.96649C84.1458 9.89443 84.125 9.82435 84.0902 9.76103C82.644 7.12972 78.6719 7.87291 76.7285 9.30909C76.6596 9.36061 76.605 9.42901 76.57 9.5077C76.5351 9.5864 76.521 9.67276 76.5291 9.75848C76.5371 9.8442 76.5671 9.92641 76.6161 9.99721C76.6651 10.068 76.7315 10.125 76.8089 10.1628C79.0686 11.2608 81.407 11.3646 83.8241 10.4741Z" fill="#B1B1B1"/>
<path d="M80.6153 14.1943C80.5407 14.2301 80.4761 14.2839 80.4272 14.3508C80.3784 14.4176 80.3468 14.4956 80.3354 14.5776C80.324 14.6596 80.333 14.7432 80.3617 14.8209C80.3904 14.8985 80.4378 14.9679 80.4998 15.0228C82.4281 16.7302 84.6594 17.3077 87.1936 16.7553C87.3221 16.7278 87.4344 16.65 87.5059 16.539C87.5774 16.428 87.6024 16.2927 87.5752 16.1627C86.9576 13.1397 82.7394 13.1799 80.6153 14.1943Z" fill="#B1B1B1"/>
<path d="M95.5098 15.0278C93.1798 16.8356 92.1035 19.2159 92.2809 22.1686C92.2857 22.2446 92.3078 22.3186 92.3455 22.3849C92.3832 22.4512 92.4355 22.508 92.4984 22.5511C92.5613 22.5942 92.6332 22.6224 92.7086 22.6335C92.7841 22.6447 92.861 22.6385 92.9337 22.6155C95.9668 21.6563 97.5988 18.1211 96.2781 15.2187C96.2463 15.1496 96.1994 15.0887 96.1408 15.0402C96.0822 14.9918 96.0135 14.9571 95.9398 14.9388C95.866 14.9205 95.7891 14.919 95.7146 14.9344C95.6402 14.9498 95.5702 14.9817 95.5098 15.0278Z" fill="#B1B1B1"/>
<path d="M85.8985 22.801C84.0243 22.0209 82.7771 20.7346 83.1128 19.9281C83.4486 19.1216 85.2401 19.1002 87.1143 19.8804C88.9885 20.6605 90.2357 21.9468 89.8999 22.7533C89.5642 23.5598 87.7727 23.5812 85.8985 22.801Z" fill="#B1B1B1"/>
<path d="M93.662 30.404C97.0164 30.2986 98.8845 26.8537 98.5982 23.6349C98.5903 23.5509 98.5614 23.4702 98.5141 23.4003C98.4668 23.3305 98.4027 23.2736 98.3276 23.2351C98.2525 23.1966 98.169 23.1776 98.0846 23.1799C98.0003 23.1822 97.9179 23.2057 97.845 23.2482C95.3074 24.7346 93.744 26.919 93.1548 29.8014C93.1396 29.8757 93.1414 29.9524 93.1601 30.0258C93.1788 30.0992 93.2138 30.1675 93.2626 30.2254C93.3114 30.2834 93.3727 30.3296 93.4418 30.3605C93.511 30.3914 93.5863 30.4063 93.662 30.404Z" fill="#B1B1B1"/>
<path d="M85.7824 28.2151C86.9709 29.581 88.5058 30.3075 90.3872 30.3945C90.4657 30.3975 90.5439 30.3823 90.6155 30.35C90.6871 30.3177 90.7502 30.2692 90.7998 30.2083C90.8495 30.1475 90.8843 30.0759 90.9016 29.9993C90.9189 29.9227 90.9182 29.8431 90.8994 29.7668C90.3203 27.5071 88.8105 26.1897 86.37 25.8148C83.131 25.3177 85.0794 27.4066 85.7824 28.2151Z" fill="#B1B1B1"/>
<path d="M88.917 33.4931C90.3393 34.9104 90.9908 36.5626 90.3722 37.1834C89.7536 37.8042 88.0991 37.1584 86.6768 35.7411C85.2545 34.3238 84.603 32.6716 85.2217 32.0508C85.8403 31.43 87.4947 32.0758 88.917 33.4931Z" fill="#B1B1B1"/>
<path d="M99.1557 32.4727C99.1416 32.4085 99.1148 32.3477 99.0768 32.2939C99.0388 32.2401 98.9904 32.1944 98.9343 32.1594C98.8783 32.1243 98.8157 32.1007 98.7503 32.0898C98.6849 32.079 98.6179 32.0811 98.5531 32.0961C95.5937 32.789 93.6956 34.632 92.8587 37.6248C92.8359 37.7055 92.8338 37.7907 92.8524 37.8724C92.871 37.9541 92.9098 38.0299 92.9652 38.0928C93.0206 38.1557 93.0909 38.2038 93.1697 38.2326C93.2484 38.2613 93.3331 38.2699 93.416 38.2576C96.4457 37.8023 98.3473 36.2841 99.1206 33.703C99.2411 33.3012 99.2528 32.8912 99.1557 32.4727Z" fill="#B1B1B1"/>
<path d="M87.8654 40.2439C88.9481 41.8986 89.2088 43.6437 88.4476 44.1418C87.6865 44.6399 86.1917 43.7023 85.1089 42.0477C84.0262 40.3931 83.7655 38.648 84.5267 38.1499C85.2878 37.6518 86.7826 38.5893 87.8654 40.2439Z" fill="#B1B1B1"/>
<path d="M95.8305 44.7357C97.0591 43.7616 97.8124 42.62 98.0902 41.311C98.1064 41.2368 98.1052 41.1598 98.0867 41.086C98.0682 41.0122 98.0328 40.9436 97.9834 40.8854C97.9339 40.8272 97.8717 40.781 97.8014 40.7503C97.7311 40.7197 97.6547 40.7053 97.578 40.7084C94.5517 40.8356 92.3556 42.2367 90.9897 44.9115C90.9566 44.9757 90.9381 45.0465 90.9354 45.1188C90.9327 45.191 90.9459 45.2632 90.9741 45.3301C91.0023 45.397 91.0448 45.4571 91.0987 45.5062C91.1525 45.5554 91.2165 45.5923 91.286 45.6145C92.9197 46.1401 94.4345 45.8472 95.8305 44.7357Z" fill="#B1B1B1"/>
<path d="M82.8751 48.743C83.4426 49.682 84.1305 50.8822 85.2504 50.8621C85.364 50.8608 85.4738 50.8202 85.5615 50.7471C85.6492 50.674 85.7095 50.5728 85.7324 50.4604C86.3718 47.3905 85.3926 45.2178 82.7948 43.9423C82.7255 43.9086 82.6494 43.8912 82.5723 43.8916C82.4952 43.892 82.4192 43.9101 82.3503 43.9446C82.2813 43.9791 82.2212 44.029 82.1747 44.0904C82.1281 44.1518 82.0963 44.2232 82.0817 44.2989C81.7804 45.8823 82.0449 47.3637 82.8751 48.743Z" fill="#B1B1B1"/>
<path d="M90.8094 53.1166C92.875 52.8321 94.3881 51.719 95.3489 49.7773C95.3838 49.7064 95.4014 49.6282 95.4003 49.5492C95.3993 49.4702 95.3796 49.3926 95.3429 49.3226C95.3062 49.2526 95.2536 49.1923 95.1892 49.1466C95.1248 49.1008 95.0505 49.0708 94.9723 49.0592C91.869 48.5939 89.4435 49.5547 87.696 51.9416C87.6521 52.002 87.6223 52.0715 87.6087 52.1449C87.595 52.2183 87.5979 52.2939 87.6172 52.366C87.6364 52.4382 87.6715 52.5051 87.7199 52.562C87.7683 52.6189 87.8287 52.6643 87.8969 52.6948C88.8309 53.1166 89.8017 53.2572 90.8094 53.1166Z" fill="#B1B1B1"/>
<path d="M81.2728 56.1806C81.3392 56.1569 81.3998 56.1202 81.4508 56.0726C81.5018 56.0251 81.5421 55.9678 81.5691 55.9044C82.2386 54.3075 82.165 52.714 81.3481 51.1239C80.9397 50.3304 80.4158 49.768 79.7764 49.4366C79.71 49.4023 79.6369 49.383 79.5623 49.3802C79.4877 49.3775 79.4135 49.3913 79.3452 49.4206C79.2768 49.45 79.2161 49.4941 79.1673 49.5499C79.1186 49.6056 79.083 49.6716 79.0633 49.7429C78.4507 51.9022 78.7235 53.946 79.8818 55.8743C80.1463 56.3162 80.61 56.4183 81.2728 56.1806Z" fill="#B1B1B1"/>
<path d="M85.5369 60.0217H87.2945C89.2998 59.4224 90.5736 58.5068 91.1159 57.2749C91.1445 57.2097 91.1589 57.1392 91.1582 57.068C91.1574 56.9969 91.1416 56.9267 91.1117 56.8621C91.0818 56.7975 91.0385 56.74 90.9847 56.6934C90.9308 56.6469 90.8677 56.6123 90.7995 56.5919C87.8335 55.7014 85.2339 56.217 83.001 58.1386C82.9464 58.1854 82.9025 58.2433 82.8723 58.3085C82.842 58.3737 82.8261 58.4447 82.8256 58.5166C82.8251 58.5885 82.8401 58.6596 82.8695 58.7252C82.8989 58.7908 82.942 58.8493 82.996 58.8968C83.7157 59.5262 84.5627 59.9012 85.5369 60.0217Z" fill="#B1B1B1"/>
<defs>
<clipPath id="clip0_4878_17465">
<rect width="60" height="16.5" fill="white" transform="translate(20 21.75)"/>
</clipPath>
<clipPath id="clip1_4878_17465">
<rect width="60" height="16.5" fill="white" transform="translate(20 21.75)"/>
</clipPath>
</defs>
</svg>
