<svg width="100" height="61" viewBox="0 0 100 61" fill="none" xmlns="http://www.w3.org/2000/svg">
<path d="M13.8582 8.15859C13.8201 8.2269 13.7666 8.28536 13.7018 8.32931C13.6371 8.37326 13.563 8.40148 13.4855 8.41172C13.4079 8.42196 13.3291 8.41395 13.2552 8.38831C13.1812 8.36267 13.1144 8.32012 13.0598 8.26405C11.0713 6.21189 10.7214 3.84337 12.0103 1.15849C12.7234 -0.317862 13.4013 -0.383142 14.044 0.962645C15.2325 3.44331 15.1706 5.84196 13.8582 8.15859Z" fill="#B1B1B1"/>
<path d="M6.97658 11.6384C7.52834 13.7873 8.70296 15.3427 9.60015 15.1123C10.4974 14.882 10.7774 12.9531 10.2256 10.8042C9.67386 8.65518 8.49924 7.09983 7.60204 7.33019C6.70484 7.56055 6.42481 9.48939 6.97658 11.6384Z" fill="#B1B1B1"/>
<path d="M16.174 10.4741C16.1062 10.4491 16.0446 10.4097 15.9934 10.3587C15.9422 10.3077 15.9027 10.2463 15.8774 10.1786C15.8521 10.1109 15.8418 10.0386 15.847 9.96649C15.8523 9.89443 15.873 9.82435 15.9078 9.76103C17.3541 7.12972 21.3261 7.87291 23.2695 9.30909C23.3385 9.36061 23.3931 9.42901 23.428 9.5077C23.4629 9.5864 23.477 9.67276 23.469 9.75848C23.4609 9.8442 23.4309 9.92641 23.3819 9.99721C23.3329 10.068 23.2665 10.125 23.1892 10.1628C20.9294 11.2608 18.5911 11.3646 16.174 10.4741Z" fill="#B1B1B1"/>
<path d="M19.3827 14.1943C19.4574 14.2301 19.522 14.2839 19.5708 14.3508C19.6197 14.4176 19.6512 14.4956 19.6626 14.5776C19.6741 14.6596 19.665 14.7432 19.6364 14.8209C19.6077 14.8985 19.5602 14.9679 19.4982 15.0228C17.5699 16.7302 15.3387 17.3077 12.8044 16.7553C12.6759 16.7278 12.5637 16.65 12.4921 16.539C12.4206 16.428 12.3957 16.2927 12.4228 16.1627C13.0405 13.1397 17.2586 13.1799 19.3827 14.1943Z" fill="#B1B1B1"/>
<path d="M4.48825 15.0278C6.81827 16.8356 7.89456 19.2159 7.71713 22.1686C7.7123 22.2446 7.69021 22.3186 7.65253 22.3849C7.61485 22.4512 7.56257 22.508 7.49965 22.5511C7.43674 22.5942 7.36484 22.6224 7.28941 22.6335C7.21399 22.6447 7.13701 22.6385 7.06432 22.6155C4.03128 21.6563 2.39926 18.1211 3.71994 15.2187C3.75176 15.1496 3.79869 15.0887 3.85725 15.0402C3.91581 14.9918 3.98452 14.9571 4.05828 14.9388C4.13204 14.9205 4.20898 14.919 4.2834 14.9344C4.35782 14.9498 4.42783 14.9817 4.48825 15.0278Z" fill="#B1B1B1"/>
<path d="M14.0995 22.801C15.9737 22.0209 17.2209 20.7346 16.8852 19.9281C16.5495 19.1216 14.758 19.1002 12.8838 19.8804C11.0096 20.6605 9.76239 21.9468 10.0981 22.7533C10.4338 23.5598 12.2253 23.5812 14.0995 22.801Z" fill="#B1B1B1"/>
<path d="M6.33604 30.404C2.98162 30.2986 1.11358 26.8537 1.39982 23.6349C1.4077 23.5509 1.43663 23.4702 1.48394 23.4003C1.53124 23.3305 1.59538 23.2736 1.67045 23.2351C1.74552 23.1966 1.82909 23.1776 1.91343 23.1799C1.99778 23.1822 2.08019 23.2057 2.15306 23.2482C4.69063 24.7346 6.25403 26.919 6.84323 29.8014C6.85841 29.8757 6.85661 29.9524 6.83794 30.0258C6.81928 30.0992 6.78424 30.1675 6.73545 30.2254C6.68666 30.2834 6.62539 30.3296 6.55622 30.3605C6.48705 30.3914 6.41178 30.4063 6.33604 30.404Z" fill="#B1B1B1"/>
<path d="M14.2156 28.2151C13.0272 29.581 11.4922 30.3075 9.61081 30.3945C9.53232 30.3975 9.45419 30.3823 9.38259 30.35C9.31099 30.3177 9.24787 30.2692 9.19821 30.2083C9.14855 30.1475 9.1137 30.0759 9.09642 29.9993C9.07913 29.9227 9.07988 29.8431 9.0986 29.7668C9.67776 27.5071 11.1876 26.1897 13.6281 25.8148C16.867 25.3177 14.9186 27.4066 14.2156 28.2151Z" fill="#B1B1B1"/>
<path d="M11.081 33.4931C9.65875 34.9104 9.00725 36.5626 9.62586 37.1834C10.2445 37.8042 11.8989 37.1584 13.3212 35.7411C14.7435 34.3238 15.395 32.6716 14.7764 32.0508C14.1578 31.43 12.5033 32.0758 11.081 33.4931Z" fill="#B1B1B1"/>
<path d="M0.842315 32.4727C0.856409 32.4085 0.883235 32.3477 0.921239 32.2939C0.959243 32.2401 1.00767 32.1944 1.06372 32.1594C1.11976 32.1243 1.18231 32.1007 1.24775 32.0898C1.31318 32.079 1.38019 32.0811 1.44491 32.0961C4.4043 32.789 6.30246 34.632 7.1394 37.6248C7.16211 37.7055 7.16426 37.7907 7.14564 37.8724C7.12702 37.9541 7.08824 38.0299 7.03282 38.0928C6.9774 38.1557 6.90711 38.2038 6.82836 38.2326C6.74962 38.2613 6.66492 38.2699 6.582 38.2576C3.5523 37.8023 1.65079 36.2841 0.877467 33.703C0.756948 33.3012 0.745231 32.8912 0.842315 32.4727Z" fill="#B1B1B1"/>
<path d="M12.1327 40.2439C11.0499 41.8986 10.7892 43.6437 11.5504 44.1418C12.3116 44.6399 13.8064 43.7023 14.8891 42.0477C15.9719 40.3931 16.2326 38.648 15.4714 38.1499C14.7102 37.6518 13.2154 38.5893 12.1327 40.2439Z" fill="#B1B1B1"/>
<path d="M4.16753 44.7357C2.93891 43.7616 2.18567 42.62 1.90781 41.311C1.8916 41.2368 1.8928 41.1598 1.91133 41.086C1.92985 41.0122 1.9652 40.9436 2.01467 40.8854C2.06413 40.8272 2.12639 40.781 2.19665 40.7503C2.26692 40.7197 2.34333 40.7053 2.42001 40.7084C5.44636 40.8356 7.64247 42.2367 9.00835 44.9115C9.04143 44.9757 9.05997 45.0465 9.06266 45.1188C9.06536 45.191 9.05214 45.2632 9.02394 45.3301C8.99574 45.397 8.95323 45.4571 8.89937 45.5062C8.84551 45.5554 8.78159 45.5923 8.71207 45.6145C7.07838 46.1401 5.56353 45.8472 4.16753 44.7357Z" fill="#B1B1B1"/>
<path d="M17.1229 48.743C16.5555 49.682 15.8675 50.8822 14.7477 50.8621C14.6341 50.8608 14.5243 50.8202 14.4366 50.7471C14.3489 50.674 14.2885 50.5728 14.2656 50.4604C13.6262 47.3905 14.6054 45.2178 17.2033 43.9423C17.2726 43.9086 17.3487 43.8912 17.4258 43.8916C17.5029 43.892 17.5788 43.9101 17.6478 43.9446C17.7167 43.9791 17.7768 44.029 17.8234 44.0904C17.87 44.1518 17.9017 44.2232 17.9163 44.2989C18.2176 45.8823 17.9531 47.3637 17.1229 48.743Z" fill="#B1B1B1"/>
<path d="M9.18863 53.1166C7.12308 52.8321 5.60991 51.719 4.64911 49.7773C4.61427 49.7064 4.59666 49.6282 4.5977 49.5492C4.59874 49.4702 4.61841 49.3926 4.65511 49.3226C4.69181 49.2526 4.7445 49.1923 4.8089 49.1466C4.87329 49.1008 4.94759 49.0708 5.02573 49.0592C8.12908 48.5939 10.5545 49.5547 12.302 51.9416C12.3459 52.002 12.3757 52.0715 12.3894 52.1449C12.403 52.2183 12.4001 52.2939 12.3809 52.366C12.3616 52.4382 12.3265 52.5051 12.2782 52.562C12.2298 52.6189 12.1693 52.6643 12.1012 52.6948C11.1671 53.1166 10.1963 53.2572 9.18863 53.1166Z" fill="#B1B1B1"/>
<path d="M18.7252 56.1806C18.6589 56.1569 18.5983 56.1202 18.5473 56.0726C18.4963 56.0251 18.456 55.9678 18.429 55.9044C17.7594 54.3075 17.8331 52.714 18.6499 51.1239C19.0583 50.3304 19.5823 49.768 20.2217 49.4366C20.288 49.4023 20.3612 49.383 20.4358 49.3802C20.5104 49.3775 20.5846 49.3913 20.6529 49.4206C20.7212 49.45 20.782 49.4941 20.8307 49.5499C20.8795 49.6056 20.915 49.6716 20.9347 49.7429C21.5474 51.9022 21.2745 53.946 20.1162 55.8743C19.8517 56.3162 19.3881 56.4183 18.7252 56.1806Z" fill="#B1B1B1"/>
<path d="M14.4611 60.0217H12.7036C10.6983 59.4224 9.42447 58.5068 8.88214 57.2749C8.85355 57.2097 8.83914 57.1392 8.83987 57.068C8.8406 56.9969 8.85644 56.9267 8.88636 56.8621C8.91627 56.7975 8.95957 56.74 9.01339 56.6934C9.0672 56.6469 9.1303 56.6123 9.1985 56.5919C12.1646 55.7014 14.7641 56.217 16.997 58.1386C17.0516 58.1854 17.0955 58.2433 17.1258 58.3085C17.1561 58.3737 17.172 58.4447 17.1724 58.5166C17.1729 58.5885 17.1579 58.6596 17.1286 58.7252C17.0992 58.7908 17.056 58.8493 17.0021 58.8968C16.2823 59.5262 15.4353 59.9012 14.4611 60.0217Z" fill="#B1B1B1"/>
<g clip-path="url(#clip0_4878_17340)">
<path d="M39.6532 26.8761L39.6428 26.8758C39.6371 26.8757 39.6315 26.8775 39.6269 26.8809C39.6223 26.8842 39.6189 26.889 39.6172 26.8945C38.1593 31.6961 37.2675 34.6312 36.9417 35.6999C36.8808 35.8995 36.6645 35.8671 36.5074 35.8671C35.5886 35.8665 34.6698 35.8663 33.7508 35.8665C33.5102 35.8665 33.3119 35.9136 33.2251 35.6266C32.4054 32.9071 31.5817 30.1887 30.7539 27.4715C30.693 27.272 30.625 27.1004 30.55 26.9567C30.517 26.8936 30.5005 26.8976 30.5005 26.9688C30.4988 29.4683 30.4985 31.9676 30.4996 34.4667C30.4999 34.7416 30.5143 35.2103 30.5028 35.5827C30.4947 35.8537 30.3189 35.8753 30.0833 35.8721C28.8289 35.8546 27.7048 35.8539 26.711 35.8701C26.4593 35.874 26.2777 35.913 26.2777 35.5948C26.2772 31.8045 26.2772 28.0141 26.2777 24.2235C26.2777 24.0138 26.4243 23.9994 26.6027 24.0003C28.6527 24.0126 30.7028 24.0125 32.7529 24C32.9326 23.999 33.0671 24.039 33.1162 24.2173C33.7251 26.4324 34.3369 28.6465 34.9515 30.8598C34.9648 30.9073 34.9818 30.961 35.0023 31.0208C35.0143 31.0557 35.0259 31.0908 35.0373 31.1262C35.0545 31.1794 35.0712 31.1793 35.0874 31.1259C35.7797 28.8358 36.4679 26.5433 37.1522 24.2484C37.2147 24.039 37.3142 23.9987 37.5331 24.0003C39.5987 24.0137 41.664 24.0137 43.7292 24.0003C43.9105 23.999 43.9586 24.126 43.9586 24.2903C43.9586 28.0619 43.9586 31.8333 43.9586 35.6047C43.9586 35.8593 43.8198 35.8743 43.5992 35.8717C42.512 35.8591 41.3036 35.8597 39.974 35.8737C39.699 35.8763 39.681 35.6921 39.6817 35.4597C39.6893 32.6093 39.6906 29.7589 39.6856 26.9085C39.6856 26.9 39.6822 26.8918 39.6762 26.8857C39.6701 26.8797 39.6618 26.8762 39.6532 26.8761Z" fill="#00377B"/>
<path d="M47.4586 35.7685C46.3341 35.3571 45.3457 34.5972 44.7458 33.5505C44.1439 32.5006 43.9541 31.3221 43.9571 30.1259C43.9616 28.064 44.8234 26.1063 46.697 25.0989C47.168 24.8459 47.6445 24.6875 48.1855 24.5383C50.4925 23.9007 52.8319 23.8058 55.1582 24.3812C56.0467 24.6011 56.895 24.8858 57.6301 25.3539C58.8878 26.1544 59.5971 27.4259 59.7669 28.8898C59.7846 29.041 59.799 29.1395 59.7384 29.2629C59.7347 29.2704 59.7282 29.2763 59.7204 29.2792C59.5418 29.3473 59.4112 29.3218 59.2315 29.3221C57.795 29.3225 56.3583 29.3223 54.9216 29.3215C54.7226 29.3215 54.5547 29.3676 54.4912 29.1189C54.3992 28.7579 54.3102 28.428 54.1204 28.1053C53.7813 27.5289 53.2554 27.2128 52.589 27.1071C51.7316 26.9709 50.6574 27.1012 49.9574 27.6386C49.3676 28.0912 49.1186 28.7036 48.9788 29.4118C48.8041 30.2974 48.8874 31.1449 49.2289 31.9544C49.7895 33.2832 51.4586 33.6399 52.7245 33.3656C53.5938 33.1771 54.176 32.6761 54.4277 31.7914C54.4987 31.5417 54.6951 31.5214 54.9415 31.5234C56.4758 31.5358 58.0101 31.5353 59.5444 31.5217C59.8209 31.5191 59.7751 31.7806 59.7326 31.9567C59.6514 32.2925 59.5677 32.5737 59.4815 32.8004C58.8882 34.3609 57.6452 35.4056 56.0778 35.9043C53.2263 36.8112 50.2677 36.7958 47.4586 35.7685Z" fill="#ED1C24"/>
<path d="M75.319 35.6734V35.8678C73.7024 35.8678 72.0859 35.8678 70.4694 35.8678C70.1303 35.8678 69.7863 35.9604 69.5654 35.6253C68.9671 34.7176 68.3683 33.8105 67.769 32.904C67.6472 32.7197 67.5599 32.8405 67.479 32.9599C66.7106 34.091 66.083 35.005 65.5962 35.7019C65.4564 35.9018 65.3082 35.8678 65.0954 35.8678C63.3733 35.8678 61.6511 35.8678 59.9287 35.8678C59.8855 35.8678 59.8433 35.8581 59.802 35.8387C59.7975 35.8365 59.7935 35.8334 59.7904 35.8295C59.7872 35.8255 59.785 35.8209 59.784 35.816C59.7829 35.8111 59.783 35.8061 59.7842 35.8012C59.7854 35.7963 59.7877 35.7918 59.7909 35.7879C61.2026 34.1175 62.6176 32.4502 64.036 30.7861C64.2946 30.4829 64.5522 30.1788 64.8087 29.874C64.9338 29.7254 64.9609 29.584 64.8366 29.4299C63.3924 27.6419 61.9529 25.8497 60.5181 24.0534C60.4895 24.0174 60.4982 23.9996 60.544 24C62.2875 24.0146 64.0324 24.0152 65.7788 24.0016C66.0112 24 66.1234 24.142 66.2491 24.3437C66.6726 25.0224 67.0983 25.6998 67.5261 26.3757C67.5968 26.4877 67.6741 26.5299 67.7641 26.3983C68.0187 26.0254 68.5299 25.2929 69.2977 24.2006C69.4034 24.0501 69.5081 24.0016 69.7016 24.0023C71.3879 24.0075 73.0742 24.0114 74.7603 24.0138C74.7773 24.0138 74.7975 24.0228 74.8209 24.0409C74.8243 24.0436 74.8272 24.0469 74.8294 24.0507C74.8315 24.0545 74.8329 24.0587 74.8334 24.063C74.8339 24.0673 74.8336 24.0717 74.8324 24.0759C74.8312 24.0801 74.8292 24.084 74.8264 24.0874C73.3844 25.8743 71.9308 27.6516 70.4654 29.4191C70.3077 29.6096 70.383 29.7582 70.5306 29.9336C72.134 31.841 73.7301 33.7542 75.319 35.6734Z" fill="#00377B"/>
</g>
<path d="M86.1398 8.15859C86.1779 8.2269 86.2315 8.28536 86.2962 8.32931C86.3609 8.37326 86.435 8.40148 86.5126 8.41172C86.5901 8.42196 86.669 8.41395 86.7429 8.38831C86.8168 8.36267 86.8837 8.32012 86.9382 8.26405C88.9268 6.21189 89.2766 3.84337 87.9878 1.15849C87.2747 -0.317862 86.5968 -0.383142 85.954 0.962645C84.7656 3.44331 84.8275 5.84196 86.1398 8.15859Z" fill="#B1B1B1"/>
<path d="M93.0215 11.6384C92.4697 13.7873 91.2951 15.3427 90.3979 15.1123C89.5007 14.882 89.2207 12.9531 89.7724 10.8042C90.3242 8.65518 91.4988 7.09983 92.396 7.33019C93.2932 7.56055 93.5732 9.48939 93.0215 11.6384Z" fill="#B1B1B1"/>
<path d="M83.8241 10.4741C83.8918 10.4491 83.9534 10.4097 84.0046 10.3587C84.0558 10.3077 84.0954 10.2463 84.1206 10.1786C84.1459 10.1109 84.1563 10.0386 84.151 9.96649C84.1458 9.89443 84.125 9.82435 84.0902 9.76103C82.644 7.12972 78.6719 7.87291 76.7285 9.30909C76.6596 9.36061 76.605 9.42901 76.57 9.5077C76.5351 9.5864 76.521 9.67276 76.5291 9.75848C76.5371 9.8442 76.5671 9.92641 76.6161 9.99721C76.6651 10.068 76.7315 10.125 76.8089 10.1628C79.0686 11.2608 81.407 11.3646 83.8241 10.4741Z" fill="#B1B1B1"/>
<path d="M80.6153 14.1943C80.5407 14.2301 80.4761 14.2839 80.4272 14.3508C80.3784 14.4176 80.3468 14.4956 80.3354 14.5776C80.324 14.6596 80.333 14.7432 80.3617 14.8209C80.3904 14.8985 80.4378 14.9679 80.4998 15.0228C82.4281 16.7302 84.6594 17.3077 87.1936 16.7553C87.3221 16.7278 87.4344 16.65 87.5059 16.539C87.5774 16.428 87.6024 16.2927 87.5752 16.1627C86.9576 13.1397 82.7394 13.1799 80.6153 14.1943Z" fill="#B1B1B1"/>
<path d="M95.5098 15.0278C93.1798 16.8356 92.1035 19.2159 92.2809 22.1686C92.2857 22.2446 92.3078 22.3186 92.3455 22.3849C92.3832 22.4512 92.4355 22.508 92.4984 22.5511C92.5613 22.5942 92.6332 22.6224 92.7086 22.6335C92.7841 22.6447 92.861 22.6385 92.9337 22.6155C95.9668 21.6563 97.5988 18.1211 96.2781 15.2187C96.2463 15.1496 96.1994 15.0887 96.1408 15.0402C96.0822 14.9918 96.0135 14.9571 95.9398 14.9388C95.866 14.9205 95.7891 14.919 95.7146 14.9344C95.6402 14.9498 95.5702 14.9817 95.5098 15.0278Z" fill="#B1B1B1"/>
<path d="M85.8985 22.801C84.0243 22.0209 82.7771 20.7346 83.1128 19.9281C83.4486 19.1216 85.2401 19.1002 87.1143 19.8804C88.9885 20.6605 90.2357 21.9468 89.8999 22.7533C89.5642 23.5598 87.7727 23.5812 85.8985 22.801Z" fill="#B1B1B1"/>
<path d="M93.662 30.404C97.0164 30.2986 98.8845 26.8537 98.5982 23.6349C98.5903 23.5509 98.5614 23.4702 98.5141 23.4003C98.4668 23.3305 98.4027 23.2736 98.3276 23.2351C98.2525 23.1966 98.169 23.1776 98.0846 23.1799C98.0003 23.1822 97.9179 23.2057 97.845 23.2482C95.3074 24.7346 93.744 26.919 93.1548 29.8014C93.1396 29.8757 93.1414 29.9524 93.1601 30.0258C93.1788 30.0992 93.2138 30.1675 93.2626 30.2254C93.3114 30.2834 93.3727 30.3296 93.4418 30.3605C93.511 30.3914 93.5863 30.4063 93.662 30.404Z" fill="#B1B1B1"/>
<path d="M85.7824 28.2151C86.9709 29.581 88.5058 30.3075 90.3872 30.3945C90.4657 30.3975 90.5439 30.3823 90.6155 30.35C90.6871 30.3177 90.7502 30.2692 90.7998 30.2083C90.8495 30.1475 90.8843 30.0759 90.9016 29.9993C90.9189 29.9227 90.9182 29.8431 90.8994 29.7668C90.3203 27.5071 88.8105 26.1897 86.37 25.8148C83.131 25.3177 85.0794 27.4066 85.7824 28.2151Z" fill="#B1B1B1"/>
<path d="M88.917 33.4931C90.3393 34.9104 90.9908 36.5626 90.3722 37.1834C89.7536 37.8042 88.0991 37.1584 86.6768 35.7411C85.2545 34.3238 84.603 32.6716 85.2217 32.0508C85.8403 31.43 87.4947 32.0758 88.917 33.4931Z" fill="#B1B1B1"/>
<path d="M99.1557 32.4727C99.1416 32.4085 99.1148 32.3477 99.0768 32.2939C99.0388 32.2401 98.9904 32.1944 98.9343 32.1594C98.8783 32.1243 98.8157 32.1007 98.7503 32.0898C98.6849 32.079 98.6179 32.0811 98.5531 32.0961C95.5937 32.789 93.6956 34.632 92.8587 37.6248C92.8359 37.7055 92.8338 37.7907 92.8524 37.8724C92.871 37.9541 92.9098 38.0299 92.9652 38.0928C93.0206 38.1557 93.0909 38.2038 93.1697 38.2326C93.2484 38.2613 93.3331 38.2699 93.416 38.2576C96.4457 37.8023 98.3473 36.2841 99.1206 33.703C99.2411 33.3012 99.2528 32.8912 99.1557 32.4727Z" fill="#B1B1B1"/>
<path d="M87.8654 40.2439C88.9481 41.8986 89.2088 43.6437 88.4476 44.1418C87.6865 44.6399 86.1917 43.7023 85.1089 42.0477C84.0262 40.3931 83.7655 38.648 84.5267 38.1499C85.2878 37.6518 86.7826 38.5893 87.8654 40.2439Z" fill="#B1B1B1"/>
<path d="M95.8305 44.7357C97.0591 43.7616 97.8124 42.62 98.0902 41.311C98.1064 41.2368 98.1052 41.1598 98.0867 41.086C98.0682 41.0122 98.0328 40.9436 97.9834 40.8854C97.9339 40.8272 97.8717 40.781 97.8014 40.7503C97.7311 40.7197 97.6547 40.7053 97.578 40.7084C94.5517 40.8356 92.3556 42.2367 90.9897 44.9115C90.9566 44.9757 90.9381 45.0465 90.9354 45.1188C90.9327 45.191 90.9459 45.2632 90.9741 45.3301C91.0023 45.397 91.0448 45.4571 91.0987 45.5062C91.1525 45.5554 91.2165 45.5923 91.286 45.6145C92.9197 46.1401 94.4345 45.8472 95.8305 44.7357Z" fill="#B1B1B1"/>
<path d="M82.8751 48.743C83.4426 49.682 84.1305 50.8822 85.2504 50.8621C85.364 50.8608 85.4738 50.8202 85.5615 50.7471C85.6492 50.674 85.7095 50.5728 85.7324 50.4604C86.3718 47.3905 85.3926 45.2178 82.7948 43.9423C82.7255 43.9086 82.6494 43.8912 82.5723 43.8916C82.4952 43.892 82.4192 43.9101 82.3503 43.9446C82.2813 43.9791 82.2212 44.029 82.1747 44.0904C82.1281 44.1518 82.0963 44.2232 82.0817 44.2989C81.7804 45.8823 82.0449 47.3637 82.8751 48.743Z" fill="#B1B1B1"/>
<path d="M90.8094 53.1166C92.875 52.8321 94.3881 51.719 95.3489 49.7773C95.3838 49.7064 95.4014 49.6282 95.4003 49.5492C95.3993 49.4702 95.3796 49.3926 95.3429 49.3226C95.3062 49.2526 95.2536 49.1923 95.1892 49.1466C95.1248 49.1008 95.0505 49.0708 94.9723 49.0592C91.869 48.5939 89.4435 49.5547 87.696 51.9416C87.6521 52.002 87.6223 52.0715 87.6087 52.1449C87.595 52.2183 87.5979 52.2939 87.6172 52.366C87.6364 52.4382 87.6715 52.5051 87.7199 52.562C87.7683 52.6189 87.8287 52.6643 87.8969 52.6948C88.8309 53.1166 89.8017 53.2572 90.8094 53.1166Z" fill="#B1B1B1"/>
<path d="M81.2728 56.1806C81.3392 56.1569 81.3998 56.1202 81.4508 56.0726C81.5018 56.0251 81.5421 55.9678 81.5691 55.9044C82.2386 54.3075 82.165 52.714 81.3481 51.1239C80.9397 50.3304 80.4158 49.768 79.7764 49.4366C79.71 49.4023 79.6369 49.383 79.5623 49.3802C79.4877 49.3775 79.4135 49.3913 79.3452 49.4206C79.2768 49.45 79.2161 49.4941 79.1673 49.5499C79.1186 49.6056 79.083 49.6716 79.0633 49.7429C78.4507 51.9022 78.7235 53.946 79.8818 55.8743C80.1463 56.3162 80.61 56.4183 81.2728 56.1806Z" fill="#B1B1B1"/>
<path d="M85.5369 60.0217H87.2945C89.2998 59.4224 90.5736 58.5068 91.1159 57.2749C91.1445 57.2097 91.1589 57.1392 91.1582 57.068C91.1574 56.9969 91.1416 56.9267 91.1117 56.8621C91.0818 56.7975 91.0385 56.74 90.9847 56.6934C90.9308 56.6469 90.8677 56.6123 90.7995 56.5919C87.8335 55.7014 85.2339 56.217 83.001 58.1386C82.9464 58.1854 82.9025 58.2433 82.8723 58.3085C82.842 58.3737 82.8261 58.4447 82.8256 58.5166C82.8251 58.5885 82.8401 58.6596 82.8695 58.7252C82.8989 58.7908 82.942 58.8493 82.996 58.8968C83.7157 59.5262 84.5627 59.9012 85.5369 60.0217Z" fill="#B1B1B1"/>
<defs>
<clipPath id="clip0_4878_17340">
<rect width="48.75" height="12" fill="white" transform="translate(26.2773 24)"/>
</clipPath>
</defs>
</svg>
