<svg width="154" height="47" viewBox="0 0 154 47" fill="none" xmlns="http://www.w3.org/2000/svg">
<g clip-path="url(#clip0_1503_21185)">
<path fill-rule="evenodd" clip-rule="evenodd" d="M148.197 46.2674H5.90771C2.76959 46.2674 0.213867 43.7084 0.213867 40.5918V6.53837C0.213867 3.41043 2.76959 0.862793 5.90771 0.862793H148.197C151.332 0.862793 153.891 3.41043 153.891 6.53837V40.5918C153.891 43.7084 151.332 46.2674 148.197 46.2674Z" fill="black"/>
<path fill-rule="evenodd" clip-rule="evenodd" d="M148.197 1.77145C150.829 1.77145 152.983 3.9143 152.983 6.53837V40.5918C152.983 43.2159 150.843 45.3587 148.197 45.3587H5.90771C3.27565 45.3587 1.12138 43.2159 1.12138 40.5918V6.53837C1.12138 3.9143 3.26151 1.77145 5.90771 1.77145H148.197ZM148.197 0.862793H5.90771C2.76959 0.862793 0.213867 3.42176 0.213867 6.53837V40.5918C0.213867 43.7198 2.76959 46.2674 5.90771 46.2674H148.197C151.332 46.2674 153.891 43.7198 153.891 40.5918V6.53837C153.891 3.42176 151.332 0.862793 148.197 0.862793Z" fill="#A6A6A6"/>
<path d="M81.1712 15.8825C80.1449 15.8825 79.2798 15.523 78.5957 14.8153C77.9172 14.1275 77.5383 13.1792 77.5553 12.2111C77.5553 11.1779 77.9059 10.3032 78.5957 9.60966C79.277 8.90198 80.1421 8.54248 81.1684 8.54248C82.1833 8.54248 83.0484 8.90198 83.7439 9.60966C84.4337 10.3258 84.7842 11.2005 84.7842 12.2111C84.7729 13.2471 84.4224 14.1218 83.7439 14.8125C83.0625 15.5258 82.1974 15.8825 81.1712 15.8825ZM50.6355 15.8825C49.6319 15.8825 48.7612 15.5287 48.0487 14.8295C47.342 14.1331 46.9829 13.2528 46.9829 12.2139C46.9829 11.175 47.342 10.2947 48.0487 9.59834C48.747 8.89915 49.6178 8.54531 50.6355 8.54531C51.1331 8.54531 51.6165 8.64439 52.0802 8.84537C52.5354 9.04069 52.9057 9.30677 53.1799 9.6323L53.2478 9.7144L52.4816 10.4674L52.4025 10.374C51.9699 9.85876 51.3904 9.60683 50.6242 9.60683C49.9401 9.60683 49.3435 9.85027 48.8516 10.3315C48.3569 10.8155 48.1053 11.4496 48.1053 12.2167C48.1053 12.9839 48.3569 13.6179 48.8516 14.102C49.3435 14.5832 49.9401 14.8267 50.6242 14.8267C51.3536 14.8267 51.9671 14.5832 52.4449 14.102C52.7276 13.8189 52.9029 13.4226 52.9651 12.9216H50.5083V11.8629H54.0196L54.0337 11.9591C54.0592 12.1375 54.0846 12.3215 54.0846 12.4913C54.0846 13.4679 53.7906 14.2577 53.2082 14.8408C52.5467 15.5315 51.6816 15.8825 50.6355 15.8825ZM91.2357 15.7325H90.1529L86.8367 10.4192L86.865 11.376V15.7297H85.7822V8.69534H87.0176L87.0516 8.74912L90.1699 13.7538L90.1416 12.7999V8.69534H91.2357V15.7325ZM73.0347 15.7325H71.9378V9.75403H70.0352V8.69534H74.9346V9.75403H73.0319V15.7325H73.0347ZM69.1418 15.7325H68.0477V8.69534H69.1418V15.7325ZM62.9928 15.7325H61.8988V9.75403H59.9961V8.69534H64.8955V9.75403H62.9928V15.7325ZM59.3035 15.7212H55.108V8.69534H59.3035V9.75403H56.2049V11.6846H59.001V12.7319H56.2049V14.6625H59.3035V15.7212ZM79.3986 14.0878C79.8877 14.5776 80.4814 14.8238 81.1712 14.8238C81.8808 14.8238 82.4603 14.5832 82.9438 14.0878C83.4244 13.6066 83.6675 12.9754 83.6675 12.2139C83.6675 11.4525 83.4244 10.8184 82.9466 10.34C82.4575 9.85027 81.861 9.604 81.174 9.604C80.4644 9.604 79.8848 9.84461 79.4042 10.34C78.9236 10.8212 78.6805 11.4525 78.6805 12.2139C78.6805 12.9754 78.9208 13.6095 79.3986 14.0878Z" fill="white"/>
<path fill-rule="evenodd" clip-rule="evenodd" d="M77.4538 25.5579C74.7821 25.5579 72.6166 27.5875 72.6166 30.3871C72.6166 33.1612 74.7963 35.2163 77.4538 35.2163C80.1254 35.2163 82.291 33.1725 82.291 30.3871C82.291 27.5875 80.1254 25.5579 77.4538 25.5579ZM77.4538 33.3027C75.9922 33.3027 74.7341 32.0912 74.7341 30.3758C74.7341 28.6349 75.995 27.4488 77.4538 27.4488C78.9154 27.4488 80.1735 28.6349 80.1735 30.3758C80.1763 32.1025 78.9154 33.3027 77.4538 33.3027ZM66.9001 25.5579C64.2284 25.5579 62.0629 27.5875 62.0629 30.3871C62.0629 33.1612 64.2426 35.2163 66.9001 35.2163C69.5717 35.2163 71.7373 33.1725 71.7373 30.3871C71.7373 27.5875 69.5689 25.5579 66.9001 25.5579ZM66.9001 33.3027C65.4385 33.3027 64.1804 32.0912 64.1804 30.3758C64.1804 28.6349 65.4413 27.4488 66.9001 27.4488C68.3617 27.4488 69.6198 28.6349 69.6198 30.3758C69.6198 32.1025 68.3617 33.3027 66.9001 33.3027ZM54.342 27.0327V29.0765H59.2414C59.0915 30.2229 58.7127 31.0693 58.1331 31.6496C57.4151 32.3686 56.3068 33.1499 54.3533 33.1499C51.3424 33.1499 48.9874 30.7155 48.9874 27.7007C48.9874 24.686 51.3424 22.2516 54.3533 22.2516C55.9789 22.2516 57.1634 22.8942 58.0427 23.7151L59.4902 22.2658C58.2688 21.0939 56.6432 20.1965 54.3646 20.1965C50.2341 20.1965 46.7681 23.5651 46.7681 27.6894C46.7681 31.8251 50.2313 35.1823 54.3646 35.1823C56.5952 35.1823 58.2688 34.452 59.5919 33.0763C60.9405 31.726 61.3674 29.821 61.3674 28.2839C61.3674 27.8055 61.3306 27.3752 61.2543 27.0101H54.3391C54.342 27.0072 54.342 27.0327 54.342 27.0327ZM105.708 28.6236C105.304 27.5394 104.083 25.5466 101.578 25.5466C99.0955 25.5466 97.0317 27.5026 97.0317 30.3758C97.0317 33.0876 99.0729 35.205 101.818 35.205C104.023 35.205 105.307 33.8547 105.835 33.0621L104.198 31.9638C103.656 32.7705 102.901 33.2999 101.829 33.2999C100.747 33.2999 99.9889 32.8073 99.4856 31.8364L105.934 29.1614C105.934 29.1642 105.708 28.6236 105.708 28.6236ZM99.1322 30.2371C99.0813 28.3716 100.58 27.4233 101.651 27.4233C102.497 27.4233 103.2 27.8395 103.441 28.4452L99.1322 30.2371ZM93.8936 34.9162H96.0111V20.7287H93.8936V34.9162ZM90.4162 26.6307H90.3398C89.8621 26.0618 88.9546 25.5466 87.7954 25.5466C85.3895 25.5466 83.1731 27.6668 83.1731 30.3899C83.1731 33.1017 85.3782 35.1965 87.7954 35.1965C88.9404 35.1965 89.8621 34.6784 90.3398 34.0982H90.4162V34.7917C90.4162 36.6345 89.4323 37.6281 87.8463 37.6281C86.5487 37.6281 85.7429 36.6939 85.415 35.9126L83.5745 36.6826C84.1032 37.9564 85.5139 39.5331 87.8435 39.5331C90.3257 39.5331 92.4291 38.0696 92.4291 34.5001V25.8353H90.4275V26.6307C90.4303 26.6307 90.4162 26.6307 90.4162 26.6307ZM87.9849 33.3027C86.5232 33.3027 85.3019 32.0799 85.3019 30.3899C85.3019 28.6858 86.5232 27.4516 87.9849 27.4516C89.4323 27.4516 90.5547 28.7 90.5547 30.3899C90.5688 32.0799 89.4352 33.3027 87.9849 33.3027ZM115.623 20.7287H110.56V34.9162H112.677V29.5435H115.626C117.969 29.5435 120.274 27.8423 120.274 25.1418C120.274 22.4413 117.978 20.7287 115.623 20.7287ZM115.685 27.562H112.674V22.6932H115.685C117.271 22.6932 118.167 24.0038 118.167 25.1276C118.167 26.2401 117.26 27.562 115.685 27.562ZM128.761 25.5324C127.223 25.5324 125.637 26.2146 124.981 27.7007L126.858 28.482C127.262 27.7007 128.003 27.4347 128.786 27.4347C129.883 27.4347 130.991 28.0914 131.017 29.2633V29.4133C130.638 29.1982 129.807 28.8698 128.811 28.8698C126.784 28.8698 124.729 29.9795 124.729 32.06C124.729 33.9651 126.391 35.188 128.243 35.188C129.665 35.188 130.448 34.5454 130.937 33.8009H131.014V34.8992H133.055V29.4643C133.055 26.9336 131.178 25.5324 128.761 25.5324ZM128.495 33.3027C127.802 33.3027 126.832 32.963 126.832 32.0912C126.832 30.9929 128.043 30.5767 129.074 30.5767C130.007 30.5767 130.448 30.7777 131.003 31.0551C130.85 32.329 129.776 33.2914 128.495 33.3027ZM140.502 25.8353L138.07 31.9893H137.994L135.475 25.8353H133.196L136.976 34.4378L134.822 39.2189H137.027L142.843 25.8353H140.502ZM121.441 34.9162H123.559V20.7287H121.441V34.9162Z" fill="white"/>
<path fill-rule="evenodd" clip-rule="evenodd" d="M12.0428 9.41432C11.7148 9.76816 11.5254 10.3088 11.5254 11.0165V36.1164C11.5254 36.824 11.7148 37.3647 12.0541 37.7044L12.1417 37.7808L26.187 23.7179V23.4037L12.1304 9.33789L12.0428 9.41432Z" fill="url(#paint0_linear_1503_21185)"/>
<path fill-rule="evenodd" clip-rule="evenodd" d="M30.8598 28.4198L26.1753 23.7293V23.4009L30.8598 18.7104L30.9616 18.7727L36.5027 21.9261C38.0887 22.8206 38.0887 24.2983 36.5027 25.2041L30.9616 28.3575L30.8598 28.4198Z" fill="url(#paint1_linear_1503_21185)"/>
<path fill-rule="evenodd" clip-rule="evenodd" d="M30.9616 28.3576L26.1753 23.5652L12.0425 37.7159C12.5598 38.2707 13.4278 38.333 14.3975 37.7923L30.9616 28.3576Z" fill="url(#paint2_linear_1503_21185)"/>
<path fill-rule="evenodd" clip-rule="evenodd" d="M30.9616 18.7726L14.3975 9.35204C13.4278 8.79722 12.557 8.87365 12.0425 9.42847L26.1753 23.565L30.9616 18.7726Z" fill="url(#paint3_linear_1503_21185)"/>
<path opacity="0.2" fill-rule="evenodd" clip-rule="evenodd" d="M30.8598 28.2556L14.4087 37.614C13.4899 38.1434 12.67 38.1066 12.1414 37.6254L12.0537 37.7131L12.1414 37.7895C12.67 38.2679 13.4899 38.3076 14.4087 37.7782L30.9729 28.3575L30.8598 28.2556Z" fill="black"/>
<path opacity="0.12" fill-rule="evenodd" clip-rule="evenodd" d="M36.5028 25.04L30.8457 28.2557L30.9475 28.3576L36.4887 25.2042C37.2831 24.7513 37.6732 24.1568 37.6732 23.5652C37.6252 24.1087 37.2209 24.6239 36.5028 25.04Z" fill="black"/>
<path opacity="0.25" fill-rule="evenodd" clip-rule="evenodd" d="M14.3978 9.51628L36.5031 22.0903C37.2212 22.4951 37.6255 23.0244 37.6877 23.5651C37.6877 22.9735 37.2976 22.379 36.5031 21.9261L14.3978 9.3521C12.8117 8.44344 11.5254 9.20207 11.5254 11.0166V11.1807C11.5254 9.36342 12.8117 8.61894 14.3978 9.51628Z" fill="white"/>
</g>
<defs>
<linearGradient id="paint0_linear_1503_21185" x1="24.9271" y1="10.7457" x2="2.42531" y2="16.7338" gradientUnits="userSpaceOnUse">
<stop stop-color="#00A0FF"/>
<stop offset="0.00657" stop-color="#00A1FF"/>
<stop offset="0.2601" stop-color="#00BEFF"/>
<stop offset="0.5122" stop-color="#00D2FF"/>
<stop offset="0.7604" stop-color="#00DFFF"/>
<stop offset="1" stop-color="#00E3FF"/>
</linearGradient>
<linearGradient id="paint1_linear_1503_21185" x1="38.571" y1="23.5652" x2="11.1397" y2="23.5652" gradientUnits="userSpaceOnUse">
<stop stop-color="#FFE000"/>
<stop offset="0.4087" stop-color="#FFBD00"/>
<stop offset="0.7754" stop-color="#FFA500"/>
<stop offset="1" stop-color="#FF9C00"/>
</linearGradient>
<linearGradient id="paint2_linear_1503_21185" x1="28.359" y1="26.1729" x2="10.264" y2="56.5899" gradientUnits="userSpaceOnUse">
<stop stop-color="#FF3A44"/>
<stop offset="1" stop-color="#C31162"/>
</linearGradient>
<linearGradient id="paint3_linear_1503_21185" x1="8.48368" y1="1.06568" x2="16.5566" y2="14.6504" gradientUnits="userSpaceOnUse">
<stop stop-color="#32A071"/>
<stop offset="0.0685" stop-color="#2DA771"/>
<stop offset="0.4762" stop-color="#15CF74"/>
<stop offset="0.8009" stop-color="#06E775"/>
<stop offset="1" stop-color="#00F076"/>
</linearGradient>
<clipPath id="clip0_1503_21185">
<rect width="153.677" height="45.4046" fill="white" transform="translate(0.213867 0.862793)"/>
</clipPath>
</defs>
</svg>
