<svg width="92" height="92" viewBox="8 8 92 92" fill="none" xmlns="http://www.w3.org/2000/svg">
<path d="M85.3449 60.5433C81.6725 77.538 64.9186 88.3379 47.9239 84.6656C30.9291 80.9932 20.1292 64.2393 23.8016 47.2446C27.4739 30.2499 44.2279 19.4499 61.2226 23.1223C78.2173 26.7946 89.0172 43.5486 85.3449 60.5433Z" stroke="#8D6DB1" stroke-width="0.342194"/>
<mask id="mask0_169_181" style="mask-type:alpha" maskUnits="userSpaceOnUse" x="5" y="17" width="92" height="78">
<path d="M47.9007 49.1258L11.2043 48.023L5.13154 63.1651L33.6147 94.1765L37.5898 75.7804L81.1902 57.8947L96.5667 59.6419L89.3135 31.6426L78.0213 17.4745L47.9007 49.1258Z" fill="#D9D9D9"/>
</mask>
<g mask="url(#mask0_169_181)">
<path d="M91.3623 61.8454C86.9715 82.1652 66.9396 95.0781 46.6198 90.6873C26.3001 86.2964 13.3871 66.2645 17.7779 45.9448C22.1688 25.625 42.2007 12.7121 62.5205 17.1029C82.8402 21.4938 95.7532 41.5257 91.3623 61.8454Z" stroke="#8D6DB1" stroke-width="0.342194"/>
</g>
<path d="M98.7235 63.4348C93.4545 87.8185 69.4162 103.314 45.0325 98.045C20.6488 92.776 5.15325 68.7377 10.4223 44.354C15.6913 19.9703 39.7295 4.47475 64.1133 9.74376C88.497 15.0128 103.993 39.051 98.7235 63.4348Z" stroke="#8D6DB1" stroke-width="0.342194"/>
<path d="M92.3852 66.539L92.8838 64.8911L88.4723 63.5563L88.7185 62.7426L93.13 64.0774L93.6286 62.4295L94.3348 62.6432L93.0914 66.7527L92.3852 66.539Z" fill="#8D6DB1"/>
<path d="M88.2869 72.9918C87.4733 72.563 87.1844 71.758 87.3469 70.9794C86.7022 71.0446 86.0397 71.1548 85.7705 71.6656C85.7256 71.7507 85.6877 71.8456 85.6645 71.924L85.0354 71.5925C85.0491 71.5091 85.1078 71.3405 85.185 71.1939C85.6811 70.2526 86.6732 70.2738 87.6978 70.1187L88.2936 68.9882L86.8651 68.2354L87.2615 67.4833L91.9916 69.9762L90.8523 72.1378C90.3163 73.1548 89.3322 73.5427 88.2869 72.9918ZM90.9472 70.3868L88.9416 69.3298L88.2287 70.6826C87.922 71.2644 88.0928 71.8923 88.6935 72.2089C89.3273 72.5429 89.9176 72.3403 90.2342 71.7396L90.9472 70.3868Z" fill="#8D6DB1"/>
<path d="M82.9339 78.1831L85.4318 80.2803L84.8851 80.9314L82.3217 78.7792C81.2776 77.9024 81.3582 76.6506 82.2349 75.6064C83.1425 74.5254 84.3476 74.2875 85.359 75.1367L87.9347 77.2993L87.388 77.9504L84.8902 75.8531C84.1613 75.2412 83.4151 75.4314 82.8409 76.1153C82.253 76.8155 82.2173 77.5814 82.9339 78.1831Z" fill="#8D6DB1"/>
<path d="M78.6876 82.5521L79.5624 82.1976C80.2979 81.9004 80.9624 81.839 81.4822 82.4844C82.0926 83.2423 81.8877 84.1556 80.8966 84.9539C80.4011 85.353 79.88 85.601 79.4287 85.7311L78.9881 85.0562C79.3944 84.9555 79.9922 84.6662 80.3836 84.351C80.9333 83.9083 81.1388 83.4475 80.8303 83.0644C80.5251 82.6855 80.1257 82.863 79.7012 83.0264L78.8831 83.3489C77.9582 83.7093 77.3994 83.6377 76.9131 83.0339C76.3261 82.3051 76.5342 81.3275 77.5086 80.5427C78.0874 80.0765 78.7319 79.7771 79.2267 79.6669L79.664 80.3377C79.1567 80.4579 78.5463 80.723 78.0508 81.1221C77.4844 81.5782 77.2657 82.0908 77.5809 82.4822C77.8157 82.7737 78.1389 82.7743 78.6876 82.5521Z" fill="#8D6DB1"/>
<path d="M72.74 89.3908L74.248 88.56L72.0241 84.5231L72.7687 84.1129L74.9926 88.1498L76.5006 87.3191L76.8566 87.9654L73.096 90.037L72.74 89.3908Z" fill="#8D6DB1"/>
<path d="M64.5938 87.7106L68.4344 86.4502L70.1016 91.5304L66.332 92.7674L66.1036 92.0715L69.0654 91.0995L68.5936 89.6618L66.0027 90.512L65.7776 89.8262L68.3686 88.976L67.8551 87.4113L64.8222 88.4065L64.5938 87.7106Z" fill="#8D6DB1"/>
<path d="M62.4197 93.8738L60.1722 94.1273C58.4401 94.3227 57.3168 93.427 57.131 91.78C56.9447 90.1276 57.8515 89.0084 59.5836 88.813L61.8204 88.5608L62.4197 93.8738ZM60.1326 93.3946L61.4875 93.2418L61.0524 89.3845L59.6976 89.5373C58.4331 89.6799 57.8664 90.4756 58.0024 91.6817C58.139 92.8931 58.8734 93.5367 60.1326 93.3946Z" fill="#8D6DB1"/>
<path d="M45.7753 89.5868C45.6535 90.1019 45.918 90.4941 46.4643 90.6232L48.2075 91.0353L48.5814 89.4534L46.8382 89.0414C46.2971 88.9135 45.8835 89.1289 45.7753 89.5868ZM47.6884 93.2311L48.0414 91.7377L46.5636 91.3884C46.0329 91.2629 45.6374 91.4716 45.5267 91.94C45.416 92.4083 45.7007 92.7612 46.2211 92.8842L47.6884 93.2311ZM49.5772 88.9361L48.3472 94.1395L45.9745 93.5787C44.9754 93.3425 44.4542 92.6424 44.6546 91.7942C44.769 91.3103 45.0927 90.9638 45.5609 90.8657C44.985 90.5592 44.7686 89.9642 44.9137 89.3502C45.1203 88.476 45.9192 88.0715 46.9807 88.3224L49.5772 88.9361Z" fill="#8D6DB1"/>
<path d="M41.0936 86.5067L40.4379 87.9295C41.4264 88.5439 41.7885 89.5468 41.2805 90.6491L40.5845 92.1593L39.8124 91.8035L40.4659 90.3855C40.8799 89.4872 40.5161 88.8074 39.7294 88.4448C38.9185 88.0711 38.1829 88.262 37.7757 89.1458L37.1222 90.5638L36.3501 90.2079L37.0394 88.7123C37.5608 87.5809 38.5759 87.2304 39.6658 87.5737L40.3215 86.1509L41.0936 86.5067Z" fill="#8D6DB1"/>
<path d="M16.7545 41.2579L16.2559 42.9058L20.6673 44.2405L20.4211 45.0542L16.0097 43.7195L15.5111 45.3674L14.8048 45.1537L16.0483 41.0442L16.7545 41.2579Z" fill="#8D6DB1"/>
<path d="M20.8528 34.8051C21.6663 35.2338 21.9553 36.0389 21.7927 36.8175C22.4375 36.7523 23.0999 36.6421 23.3692 36.1313C23.414 36.0461 23.4519 35.9513 23.4751 35.8729L24.1042 36.2044C24.0905 36.2878 24.0319 36.4564 23.9546 36.603C23.4585 37.5443 22.4664 37.5231 21.4418 37.6781L20.846 38.8086L22.2745 39.5615L21.8782 40.3136L17.1481 37.8207L18.2873 35.659C18.8233 34.6421 19.8074 34.2541 20.8528 34.8051ZM18.1925 37.4101L20.198 38.4671L20.911 37.1143C21.2176 36.5325 21.0469 35.9046 20.4462 35.588C19.8123 35.254 19.222 35.4566 18.9054 36.0573L18.1925 37.4101Z" fill="#8D6DB1"/>
<path d="M26.2057 29.6138L23.7079 27.5166L24.2545 26.8655L26.8179 29.0177C27.8621 29.8944 27.7815 31.1462 26.9048 32.1904C25.9971 33.2715 24.792 33.5094 23.7806 32.6602L21.205 30.4976L21.7516 29.8465L24.2495 31.9437C24.9783 32.5557 25.7246 32.3654 26.2987 31.6816C26.8866 30.9814 26.9223 30.2155 26.2057 29.6138Z" fill="#8D6DB1"/>
<path d="M30.4521 25.2448L29.5773 25.5993C28.8418 25.8964 28.1773 25.9579 27.6574 25.3125C27.047 24.5546 27.252 23.6412 28.243 22.843C28.7385 22.4439 29.2596 22.1959 29.7109 22.0658L30.1516 22.7407C29.7452 22.8414 29.1475 23.1306 28.756 23.4459C28.2064 23.8886 28.0008 24.3494 28.3094 24.7325C28.6146 25.1114 29.014 24.9339 29.4384 24.7705L30.2565 24.448C31.1814 24.0876 31.7403 24.1592 32.2266 24.763C32.8135 25.4917 32.6055 26.4694 31.6311 27.2542C31.0522 27.7204 30.4078 28.0198 29.9129 28.13L29.4757 27.4592C29.983 27.339 30.5934 27.0739 31.0889 26.6748C31.6552 26.2187 31.874 25.7061 31.5587 25.3147C31.3239 25.0232 31.0008 25.0226 30.4521 25.2448Z" fill="#8D6DB1"/>
<path d="M36.3997 18.4061L34.8917 19.2369L37.1156 23.2738L36.3709 23.684L34.1471 19.6471L32.6391 20.4778L32.283 19.8315L36.0436 17.7599L36.3997 18.4061Z" fill="#8D6DB1"/>
<path d="M44.5459 20.0863L40.7052 21.3467L39.0381 16.2664L42.8076 15.0294L43.036 15.7254L40.0742 16.6974L40.546 18.1351L43.1369 17.2848L43.362 17.9707L40.7711 18.8209L41.2846 20.3856L44.3175 19.3903L44.5459 20.0863Z" fill="#8D6DB1"/>
<path d="M46.72 13.923L48.9674 13.6696C50.6995 13.4742 51.8228 14.3698 52.0086 16.0169C52.195 17.6693 51.2881 18.7885 49.556 18.9839L47.3192 19.2361L46.72 13.923ZM49.007 14.4022L47.6522 14.555L48.0872 18.4124L49.4421 18.2596C50.7066 18.1169 51.2733 17.3212 51.1373 16.1152C51.0006 14.9038 50.2662 14.2602 49.007 14.4022Z" fill="#8D6DB1"/>
<path d="M63.3643 18.2101C63.4861 17.695 63.2217 17.3028 62.6753 17.1737L60.9322 16.7616L60.5583 18.3435L62.3014 18.7555C62.8426 18.8834 63.2561 18.668 63.3643 18.2101ZM61.4512 14.5658L61.0982 16.0592L62.576 16.4085C63.1067 16.5339 63.5022 16.3252 63.6129 15.8569C63.7236 15.3886 63.4389 15.0356 62.9186 14.9126L61.4512 14.5658ZM59.5624 18.8608L60.7924 13.6574L63.1651 14.2182C64.1642 14.4544 64.6855 15.1545 64.485 16.0026C64.3706 16.4865 64.047 16.8331 63.5787 16.9312C64.1546 17.2376 64.3711 17.8327 64.2259 18.4467C64.0193 19.3209 63.2204 19.7254 62.1589 19.4745L59.5624 18.8608Z" fill="#8D6DB1"/>
<path d="M68.0461 21.2902L68.7017 19.8674C67.7133 19.2529 67.3512 18.2501 67.8592 17.1478L68.5551 15.6376L69.3272 15.9934L68.6738 17.4113C68.2598 18.3097 68.6235 18.9895 69.4102 19.352C70.2212 19.7257 70.9567 19.5349 71.364 18.6511L72.0174 17.2331L72.7895 17.5889L72.1003 19.0846C71.5789 20.216 70.5637 20.5665 69.4738 20.2232L68.8182 21.646L68.0461 21.2902Z" fill="#8D6DB1"/>
</svg>
